<?xml version="1.0" encoding="utf-8"?>
<!-- Generator: Adobe Illustrator 19.2.1, SVG Export Plug-In . SVG Version: 6.00 Build 0)  -->
<svg version="1.1" id="layer" xmlns="http://www.w3.org/2000/svg" xmlns:xlink="http://www.w3.org/1999/xlink" x="0px" y="0px"
	 viewBox="0 0 652 652" style="enable-background:new 0 0 652 652;" xml:space="preserve">
<style type="text/css">
	.st0{fill-rule:evenodd;clip-rule:evenodd;fill:#006A68;}
	.st1{fill-rule:evenodd;clip-rule:evenodd;fill:#006C6B;}
	.st2{fill-rule:evenodd;clip-rule:evenodd;fill:#E0002A;}
</style>
<path class="st0" d="M218.8,334.3h43.9l-4.2,8.6c-0.5-1-1.4-1.7-2.4-1.7h-11.6l-17.9,36.5h-11.3l17.9-36.5h-14.4
	c-1.3,0-3,0.8-4.2,1.7L218.8,334.3z M349.2,369.4l-4.1,8.3h-42.4l19.8-40.4c0.2-0.5,0.3-1,0.3-1.6c0-0.5-0.1-1-0.3-1.5h37.8
	l-4.2,8.5c-0.5-1-1.4-1.7-2.4-1.7H332l-5.1,10.4h22l-4.2,8.5c-0.5-1-1.4-1.7-2.4-1.7h-18.9l-6.1,12.5l27.4,0
	C346,370.8,348.3,370.2,349.2,369.4 M558.7,369.4l-4.1,8.3h-32.2l19.8-40.4c0.2-0.5,0.3-1,0.3-1.6c0-0.5-0.1-1-0.3-1.5H555
	l-17.8,36.6l17.2,0C555.5,370.8,557.8,370.2,558.7,369.4 M249.8,377.7l19.7-40.3c0.2-0.5,0.3-1,0.3-1.6c0-0.5-0.1-1-0.3-1.5h22.7
	c4.4,0,12.7-0.1,12.7,10.2c0,9.2-8.9,14.6-12.7,15.1l3.3,14.9c0.4,1.6,1.3,2.7,2.1,3.2h-12.2l-3.6-18h-11.9l-8.8,18H249.8
	L249.8,377.7z M294.1,344.4c0-1.3-1.1-3.3-3.7-3.3H279l-5.7,11.7h10.6C290,352.8,294.1,349,294.1,344.4 M426.4,334.2
	c0.2,0.4,0.3,0.9,0.3,1.5c0,0.6-0.1,1.1-0.3,1.6l-19.7,40.4H418l21.3-43.5H426.4z M579.8,334.2c0.2,0.4,0.3,0.9,0.3,1.5
	c0,0.6-0.1,1.1-0.3,1.6L560,377.7h11.4l21.3-43.5H579.8z M447.3,334.3h43.9l-4.2,8.6c-0.5-1-1.4-1.7-2.4-1.7l-11.6,0l-17.9,36.5
	h-11.3l17.9-36.5h-14.4c-1.4,0-3,0.8-4.2,1.7L447.3,334.3z M503.6,334.3c0,1.1-0.4,2.3-1.4,3.5l-34.5,39.9h9.9l8.2-9.9H507l0.2,9.9
	h10.4l-2.2-43.4L503.6,334.3z M491.6,360.8l14.8-17.8l0.4,17.8H491.6z M612.5,334.3c0,1.1-0.4,2.3-1.4,3.5l-34.6,40h10l8.2-9.9h21.2
	l0.2,9.9h10.4l-2.2-43.6H612.5z M600.4,360.9l14.9-17.9l0.4,17.9H600.4z M370.3,340.3l1.4-2.9c0.2-0.5,0.4-1,0.4-1.6
	c0-0.5-0.1-1-0.3-1.5h11.3l10.6,30.2l13.2-27.1c0.2-0.5,0.4-1,0.4-1.6c0-0.5-0.1-1-0.3-1.5h9.3l-21.2,43.4h-8.1l-11.3-32.3
	l-15.8,32.3H352L370.3,340.3z"/>
<path class="st0" d="M48.7,409.3V409h-11v4.1h5.7c-0.2,1-0.4,1.4-0.8,2.1c-1,1.3-2.8,2.2-4.8,2.2c-3.9,0-6.7-3-6.7-7.1
	c0-4.2,2.8-7.2,6.7-7.2c1.2,0,2.3,0.3,3.4,0.9c1,0.6,1.4,0.9,2.2,2l3.9-2.3c-1-1.4-1.4-1.8-2.3-2.6c-1.9-1.5-4.5-2.4-7.3-2.4
	c-6.7,0-11.3,4.7-11.3,11.5c0,6.8,4.6,11.4,11.1,11.4c4.3,0,8.1-2.1,9.8-5.7C48.3,414.1,48.7,412.1,48.7,409.3 M626.5,403.5v-4.2
	H614v21.9h12.4v-4.4h-7.7v-4.7h7.5v-4.2h-7.5v-4.3H626.5z M543.7,421.1l-9-21.9h-5.1l-8.6,21.9h5.1l1.6-4.4h9.1l1.7,4.4H543.7z
	 M535.3,412.6h-6l2.9-8.6L535.3,412.6z M557.8,421.1v-4.3h-7.5v-17.6h-4.8v21.9H557.8z M565.2,399.2h-4.8v21.9h4.8V399.2z
	 M589.6,421.1l-9-21.9h-5.1l-8.6,21.9h5.1l1.6-4.4h9.1l1.7,4.4H589.6z M581.2,412.6h-6l2.9-8.6L581.2,412.6z M610.4,421.1v-21.9
	h-4.5l0.1,14.4l-10.2-14.4h-4.3v21.9h4.5l-0.1-14.7l10.3,14.7H610.4z M522.2,403.5v-4.2h-14.1v4.3h4.7v17.6h4.7v-17.7H522.2z
	 M489.6,410.2c0-6.6-5-11.5-11.7-11.5c-6.7,0-11.6,4.9-11.6,11.7c0,6.6,4.8,11.3,11.8,11.3C484.9,421.7,489.6,417,489.6,410.2
	 M484.7,410.3c0,3.9-2.8,6.9-6.6,6.9c-4,0-7-3-7-6.9c0-3.9,3-7,6.9-7C481.9,403.2,484.7,406.3,484.7,410.3 M505.9,399.2h-4.8v21.9
	h4.8V399.2z M465.7,403.5v-4.2h-14.1v4.3h4.7v17.6h4.7v-17.7H465.7z M452.8,421.1l-9-21.9h-5.1l-8.6,21.9h5.1l1.6-4.4h9.1l1.7,4.4
	H452.8z M444.4,412.6h-6l2.9-8.6L444.4,412.6z M431.2,403.5v-4.2h-14.1v4.3h4.7v17.6h4.7v-17.7H431.2z M390.9,410.2
	c0-6.6-5-11.5-11.7-11.5c-6.7,0-11.6,4.9-11.6,11.7c0,6.6,4.8,11.3,11.8,11.3C386.2,421.7,390.9,417,390.9,410.2 M386,410.3
	c0,3.9-2.8,6.9-6.6,6.9c-4,0-7-3-7-6.9c0-3.9,3-7,6.9-7C383.2,403.2,386,406.3,386,410.3 M415.8,414.4c0-6.8-8.8-6.2-8.8-9.6
	c0-1.2,1-1.9,2.1-1.9c1.5,0,2.4,1,3.3,2.1l3-3.4c-1.9-1.9-3.5-2.9-6.3-2.9c-3.7,0-7,2.4-7,6.4c0,3.7,2.9,5.5,5.9,6.9
	c0.7,0.3,1.4,0.7,2,1.1c0.6,0.5,0.9,1.1,0.9,1.9c0,1.6-1.3,2.6-2.8,2.6c-1.8,0-3-1.2-4.1-2.5l-3.1,3.4c2,1.9,4.2,3.1,7,3.1
	C412.2,421.6,415.8,419,415.8,414.4 M366.5,421.1v-4.3H359v-17.6h-4.8v21.9H366.5z M320.8,409.9c0-2.2-0.5-4.1-1.6-5.9
	c-2.6-4.4-6.9-4.8-11.5-4.8h-4.4v21.9h5.1c3.1,0,6-0.1,8.5-2.1C319.5,417,320.8,413.2,320.8,409.9 M316.1,410.1
	c0,4.4-2.3,7.2-6.8,7.2H308v-14.2h0.7c1.8,0,3.7,0.1,5.1,1.3C315.5,405.7,316.1,408,316.1,410.1 M336.3,403.5v-4.2h-12.4v21.9h12.4
	v-4.4h-7.7v-4.7h7.5v-4.2h-7.5v-4.3H336.3z M351.6,421.1v-4.3h-7.5v-17.6h-4.8v21.9H351.6z M290.8,403.5v-4.2h-12.4v21.9h12.4v-4.4
	h-7.7v-4.7h7.5v-4.2h-7.5v-4.3H290.8z M273.9,399.2h-4.8v21.9h4.8V399.2z M267.4,399.2h-5.1l-5.5,15.6l-5.5-15.6H246l8.2,21.9h4.6
	L267.4,399.2z M245.6,410.2c0-6.6-5-11.5-11.7-11.5c-6.7,0-11.6,4.9-11.6,11.7c0,6.6,4.8,11.3,11.8,11.3
	C240.8,421.7,245.6,417,245.6,410.2 M240.7,410.3c0,3.9-2.8,6.9-6.6,6.9c-4,0-7-3-7-6.9c0-3.9,3-7,6.9-7
	C237.8,403.2,240.7,406.3,240.7,410.3 M122.1,406.1c0-1.4-0.3-2.9-1.2-4.1c-1.5-2-3.5-2.6-5.9-2.7c-0.4,0-0.9,0-1.3,0h-6.4v21.9h4.7
	v-8.3h2.3c2.1,0,4.2-0.2,5.8-1.7C121.5,409.8,122.1,408,122.1,406.1 M117.5,406c0,2-1.5,2.8-3.3,2.8h-2.1v-5.6h2c0.5,0,1,0,1.5,0.1
	C116.8,403.6,117.5,404.8,117.5,406 M146.2,410.2c0-6.6-5-11.5-11.8-11.5c-6.7,0-11.6,4.9-11.6,11.7c0,6.6,4.8,11.3,11.8,11.3
	C141.4,421.7,146.2,417,146.2,410.2 M141.3,410.3c0,3.9-2.9,6.9-6.6,6.9c-4,0-7-3-7-6.9c0-3.9,3-7,6.9-7
	C138.4,403.2,141.3,406.3,141.3,410.3 M170.4,412v-4.3h-7.9v-4.3h7.9v-4.2h-12.7v21.9h4.8V412H170.4z M184.9,403.5v-4.2h-12.4v21.9
	h12.4v-4.4h-7.7v-4.7h7.5v-4.2h-7.5v-4.3H184.9z M204.1,421.1l-6.3-9.3c0.8-0.2,1.7-0.4,2.4-0.9c1.7-1.1,2.5-3.2,2.5-5.2
	c0-1.3-0.3-2.6-1-3.7c-1.7-2.6-4.7-2.8-7.5-2.8H188v21.9h4.6v-9.2l5.8,9.2H204.1z M198,405.9c0,0.5-0.1,1.1-0.4,1.6
	c-0.7,1.2-2,1.4-3.3,1.4h-1.7v-5.8h1.6C196.2,403.1,198,403.7,198,405.9 M221.5,421.1l-6.3-9.3c0.8-0.2,1.7-0.4,2.4-0.9
	c1.7-1.1,2.5-3.2,2.5-5.2c0-1.3-0.3-2.6-1-3.7c-1.7-2.6-4.7-2.8-7.5-2.8h-6.1v21.9h4.6v-9.2l5.8,9.2H221.5z M215.4,405.9
	c0,0.5-0.1,1.1-0.4,1.6c-0.7,1.2-1.9,1.4-3.3,1.4h-1.7v-5.8h1.6C213.6,403.1,215.4,403.7,215.4,405.9 M105.2,406.1
	c0-1.4-0.3-2.9-1.2-4.1c-1.5-2-3.5-2.6-5.9-2.7c-0.4,0-0.9,0-1.3,0h-6.4v21.9h4.7v-8.3h2.3c2.1,0,4.2-0.2,5.8-1.7
	C104.6,409.8,105.2,408,105.2,406.1 M100.6,406c0,2-1.5,2.8-3.3,2.8h-2.1v-5.6h2c0.5,0,1,0,1.5,0.1C100,403.6,100.6,404.8,100.6,406
	 M67.7,421.1l-6.3-9.3c0.8-0.2,1.7-0.4,2.4-0.9c1.7-1.1,2.5-3.2,2.5-5.2c0-1.3-0.3-2.6-1-3.7c-1.7-2.6-4.7-2.8-7.5-2.8h-6.1v21.9
	h4.6v-9.2l5.8,9.2H67.7z M61.6,405.9c0,0.5-0.1,1.1-0.4,1.6c-0.7,1.2-2,1.4-3.3,1.4h-1.7v-5.8h1.6C59.8,403.1,61.6,403.7,61.6,405.9
	 M86.7,411.4v-12.2h-4.7v13.7c0,2.7-1.1,4.5-4,4.5c-1.3,0-2.7-0.4-3.5-1.5c-0.7-1-0.8-2-0.8-3.2v-13.5h-4.7v13.7
	c0,1.4,0.1,2.7,0.6,4c1.3,3.3,4.8,4.8,8.2,4.8c2.9,0,5.6-1,7.3-3.4C86.6,416.3,86.7,413.8,86.7,411.4"/>
<path class="st1" d="M112.3,296l-47.3,4.8L33,364c25.2,0,38.2-2.5,52.9-23.5C92.2,331.6,103.2,313.6,112.3,296"/>
<path class="st1" d="M240.2,237.5l3.6-7h-99.5c-33.7,0-51,11.4-61.4,32.6c-8.2,16.5-8.2,16.5-8.2,16.5h45.2
	c16.1-30.8,35.7-41.4,83.5-42H240.2z"/>
<path class="st1" d="M237.1,244.3c-60.7,0.5-70.8,10.4-84.5,35.3l67.1,0L237.1,244.3z"/>
<path class="st2" d="M172.8,331.3c-4,22.3-21.6,40-44,44c0,0-13.4,2.3-22.2,2.3c-8.8,0-80.1,0-80.1,0l3.1-6.3c0,0,27.1-0.2,30.8-0.2
	c9.4,0.2,26.3-1.8,26.3-1.8c19.1-2,34.2-14.5,39-32.6l5.4-18.3c2.9-15.2,16.3-26.6,32.3-26.6l51.9-3.3l-2.5,5l-16,1
	c-11.9,1-21.4,10.2-22.8,22L172.8,331.3z"/>
</svg>
