<?xml version="1.0" encoding="utf-8"?>
<!-- Generator: Adobe Illustrator 19.0.0, SVG Export Plug-In . SVG Version: 6.00 Build 0)  -->
<svg version="1.1" id="Layer_1" xmlns="http://www.w3.org/2000/svg" xmlns:xlink="http://www.w3.org/1999/xlink" x="0px" y="0px"
	 viewBox="0 0 500 500" style="enable-background:new 0 0 500 500;" xml:space="preserve">
<style type="text/css">
	.st0{fill:url(#SVGID_1_);}
	.st1{fill:url(#SVGID_2_);}
	.st2{fill:url(#SVGID_3_);}
	.st3{fill:url(#SVGID_4_);}
	.st4{fill:url(#SVGID_5_);}
	.st5{fill:#231F20;}
	.st6{fill:url(#SVGID_6_);}
	.st7{fill:url(#SVGID_7_);}
	.st8{fill:#5B5C5E;}
	.st9{fill:#77787B;}
	.st10{fill:#8E9092;}
	.st11{fill:#A2A4A7;}
	.st12{fill:#5D5E60;}
	.st13{fill:#8B8D90;}
	.st14{fill:#B3B5B8;}
	.st15{fill:#C0C2C4;}
	.st16{fill:#CBCCCE;}
	.st17{fill:#D0D2D3;}
	.st18{fill:#D3D4D6;}
	.st19{fill:#606163;}
	.st20{fill:#646668;}
	.st21{fill:#8A8C8E;}
	.st22{fill:#696B6D;}
	.st23{fill:#6D6F71;}
	.st24{fill:#858689;}
	.st25{fill:#808285;}
	.st26{fill:#AAACAF;}
	.st27{fill:#A5A7A9;}
	.st28{fill:#C0C1C4;}
	.st29{fill:#9B9DA0;}
	.st30{fill:#919396;}
	.st31{fill:#ACAEB0;}
	.st32{fill:#C9CBCC;}
	.st33{fill:#CFD0D2;}
	.st34{fill:#B6B8BB;}
	.st35{fill:#C5C6C8;}
	.st36{fill:#D1D3D4;}
	.st37{fill:#CDCFD0;}
	.st38{fill:#727476;}
	.st39{fill:#8D8F91;}
	.st40{fill:#7F8184;}
	.st41{fill:#8B8D8F;}
	.st42{fill:#ADAFB1;}
	.st43{fill:#C7C9CB;}
	.st44{fill:#CFD1D3;}
	.st45{fill:#AFB1B4;}
	.st46{fill:#949699;}
	.st47{fill:#9A9D9F;}
	.st48{fill:#888A8D;}
	.st49{fill:#87898B;}
	.st50{fill:#828487;}
	.st51{fill:#989A9D;}
	.st52{fill:#7C7D80;}
	.st53{fill:#707274;}
	.st54{fill:#7C7E81;}
	.st55{fill:#7A7B7E;}
	.st56{fill:#6C6D70;}
	.st57{fill:#68696B;}
	.st58{fill:#5F6062;}
	.st59{fill:#A4A6A9;}
	.st60{fill:#8E9093;}
	.st61{fill:#7F8083;}
	.st62{fill:#BABCBE;}
	.st63{fill:#95979A;}
	.st64{fill:#696A6C;}
	.st65{fill:#616265;}
	.st66{fill:#7A7C7F;}
	.st67{fill:#646567;}
	.st68{fill:#747578;}
	.st69{fill:#6E7072;}
	.st70{fill:#ADB0B2;}
	.st71{fill:#C4C6C8;}
	.st72{fill:#939598;}
	.st73{fill:#909295;}
	.st74{fill:#B2B4B6;}
	.st75{fill:#A3A5A8;}
	.st76{fill:#B9BBBD;}
	.st77{fill:#B5B7B9;}
	.st78{fill:#9D9FA1;}
	.st79{fill:#9EA0A3;}
	.st80{fill:#B2B4B7;}
	.st81{fill:#797A7D;}
	.st82{fill:#626366;}
	.st83{fill:#5C5D60;}
	.st84{fill:#6B6C6F;}
	.st85{fill:#747678;}
	.st86{fill:#595A5C;}
	.st87{fill:#555658;}
	.st88{fill:#5E5F61;}
	.st89{fill:#4F4F51;}
	.st90{fill:#545557;}
	.st91{fill:#3A393B;}
	.st92{fill:#49494B;}
	.st93{fill:#515153;}
	.st94{fill:#39383A;}
	.st95{fill:#6A6B6E;}
	.st96{fill:#77797B;}
	.st97{fill:#818385;}
	.st98{fill:#707174;}
	.st99{fill:#7D7F82;}
	.st100{fill:#606164;}
	.st101{fill:#7E8082;}
	.st102{fill:#9EA0A2;}
	.st103{fill:#929497;}
	.st104{fill:#9FA1A4;}
	.st105{fill:#A8AAAD;}
	.st106{fill:#AEB0B3;}
	.st107{fill:#B4B6B8;}
	.st108{fill:#96989B;}
	.st109{fill:#A5A8AA;}
	.st110{fill:#787A7C;}
	.st111{fill:#B1B3B5;}
	.st112{fill:#BBBDC0;}
	.st113{fill:#A7A9AC;}
	.st114{fill:#535456;}
	.st115{fill:#757779;}
	.st116{fill:#424243;}
	.st117{fill:#4A4A4C;}
	.st118{fill:#838588;}
	.st119{fill:#85878A;}
	.st120{fill:#A1A3A5;}
	.st121{fill:#A9ABAD;}
	.st122{fill:#656769;}
	.st123{fill:#BDBFC1;}
	.st124{fill:#67686B;}
	.st125{fill:#535355;}
	.st126{fill:#48484A;}
	.st127{fill:#464647;}
	.st128{fill:#444445;}
	.st129{fill:#3E3D3F;}
	.st130{fill:#414142;}
	.st131{fill:url(#SVGID_8_);}
	.st132{fill:url(#SVGID_9_);}
	.st133{fill:url(#SVGID_10_);}
	.st134{fill:url(#SVGID_11_);}
	.st135{fill:url(#SVGID_12_);}
	.st136{fill:#FFFFFF;}
	.st137{fill:#DBDCDE;}
	.st138{fill:#BFC1C3;}
	.st139{fill:#A6A8AB;}
	.st140{fill:#F8F8F9;}
	.st141{fill:#D8D9DB;}
	.st142{fill:#7B7D7F;}
	.st143{fill:#F6F6F7;}
	.st144{fill:#D7D8DA;}
	.st145{fill:#BBBDBF;}
	.st146{fill:#BEC0C2;}
	.st147{fill:#F7F7F8;}
	.st148{fill:#DADBDD;}
	.st149{fill:#EFF1F1;}
	.st150{fill:#97999B;}
	.st151{fill:#898B8E;}
	.st152{fill:#C6C8CA;}
	.st153{fill:#D9DBDC;}
	.st154{fill:#EBECEC;}
	.st155{fill:#D2D3D5;}
	.st156{fill:#E8E8E9;}
	.st157{fill:#86888B;}
	.st158{fill:#B6B8BA;}
	.st159{fill:#E7E8E8;}
	.st160{fill:#E0E1E2;}
	.st161{fill:#DEDFE0;}
	.st162{fill:#97999C;}
	.st163{fill:#F9FAFA;}
	.st164{fill:#FBFBFB;}
	.st165{fill:#FCFCFC;}
	.st166{fill:#F5F6F6;}
	.st167{fill:#FEFEFE;}
	.st168{fill:#F3F4F4;}
	.st169{fill:#F4F5F5;}
	.st170{fill:#F0F1F2;}
	.st171{fill:#E9E9EA;}
	.st172{fill:#E4E5E6;}
	.st173{fill:#E9EAEB;}
	.st174{fill:#E2E3E4;}
	.st175{fill:url(#SVGID_13_);}
	.st176{fill:url(#SVGID_14_);}
	.st177{fill:url(#SVGID_15_);}
	.st178{fill:url(#SVGID_16_);}
	.st179{fill:url(#SVGID_17_);}
	.st180{fill:url(#SVGID_18_);}
	.st181{fill:url(#SVGID_19_);}
	.st182{fill:url(#SVGID_20_);}
	.st183{fill:url(#SVGID_21_);}
	.st184{fill:url(#SVGID_22_);}
	.st185{fill:url(#SVGID_23_);}
	.st186{fill:url(#SVGID_24_);}
	.st187{fill:url(#SVGID_25_);}
	.st188{fill:url(#SVGID_26_);}
	.st189{fill:url(#SVGID_27_);}
	.st190{fill:url(#SVGID_28_);}
	.st191{fill:url(#SVGID_29_);}
	.st192{fill:url(#SVGID_30_);}
	.st193{fill:url(#SVGID_31_);}
	.st194{fill:url(#SVGID_32_);}
	.st195{fill:url(#SVGID_33_);}
	.st196{fill:url(#SVGID_34_);}
	.st197{fill:url(#SVGID_35_);}
	.st198{fill:url(#SVGID_36_);}
	.st199{fill:url(#SVGID_37_);}
	.st200{fill:url(#SVGID_38_);}
	.st201{fill:url(#SVGID_39_);}
	.st202{fill:url(#SVGID_40_);}
	.st203{fill:url(#SVGID_41_);}
	.st204{fill:url(#SVGID_42_);}
	.st205{fill:url(#SVGID_43_);}
	.st206{fill:url(#SVGID_44_);}
	.st207{fill:url(#SVGID_45_);}
	.st208{fill:url(#SVGID_46_);}
	.st209{fill:url(#SVGID_47_);}
	.st210{fill:url(#SVGID_48_);}
	.st211{fill:url(#SVGID_49_);}
	.st212{fill:url(#SVGID_50_);}
	.st213{fill:url(#SVGID_51_);}
	.st214{fill:url(#SVGID_52_);}
	.st215{fill:url(#SVGID_53_);}
	.st216{fill:url(#SVGID_54_);}
	.st217{fill:url(#SVGID_55_);}
	.st218{fill:url(#SVGID_56_);}
	.st219{fill:url(#SVGID_57_);}
	.st220{fill:url(#SVGID_58_);}
	.st221{fill:url(#SVGID_59_);}
	.st222{fill:url(#SVGID_60_);}
	.st223{fill:url(#SVGID_61_);}
	.st224{fill:url(#SVGID_62_);}
	.st225{fill:url(#SVGID_63_);}
	.st226{fill:#0067B1;}
</style>
<g id="XMLID_1_">
	
		<linearGradient id="SVGID_1_" gradientUnits="userSpaceOnUse" x1="-1.3245" y1="-1.8082" x2="2.1127" y2="-1.8082" gradientTransform="matrix(0 -23.3088 23.2862 0 232.2674 258.1289)">
		<stop  offset="0" style="stop-color:#6D6E70"/>
		<stop  offset="0.15" style="stop-color:#77787B"/>
		<stop  offset="0.3" style="stop-color:#808285"/>
		<stop  offset="0.5" style="stop-color:#A8AAAD"/>
		<stop  offset="0.7" style="stop-color:#808285"/>
		<stop  offset="0.8462" style="stop-color:#77787B"/>
		<stop  offset="1" style="stop-color:#6D6E70"/>
	</linearGradient>
	<polyline class="st0" points="157.8,208.9 222.6,208.9 222.6,220.3 197.1,220.3 197.1,289 183.1,289 183.1,220.3 157.8,220.3 
		157.8,208.9 	"/>
	
		<linearGradient id="SVGID_2_" gradientUnits="userSpaceOnUse" x1="-1.8014" y1="6.1078" x2="1.6358" y2="6.1078" gradientTransform="matrix(0 -17.7913 17.7725 0 294.5815 258.6334)">
		<stop  offset="0" style="stop-color:#6D6E70"/>
		<stop  offset="0.15" style="stop-color:#77787B"/>
		<stop  offset="0.3" style="stop-color:#808285"/>
		<stop  offset="0.5" style="stop-color:#A8AAAD"/>
		<stop  offset="0.7" style="stop-color:#808285"/>
		<stop  offset="0.8462" style="stop-color:#77787B"/>
		<stop  offset="1" style="stop-color:#6D6E70"/>
	</linearGradient>
	<path class="st1" d="M413.4,260.1c-3.9,2.6-10.4,2.5-16,3.5c-5.5,0.9-11.3,2.9-11.3,9.7c0,5.7,6.4,8.6,12.6,8.6
		c5.6,0,14.7-2.9,14.7-12.2V260.1z M425.9,276.2c0,3.1,0,6.1,3,6.1c0.8,0,1.8,0,3.1-0.2v7.1c-1.9,0.7-5.9,1.5-8.1,1.5
		c-5.2,0-8.5-2.3-9.5-7.6c-5,4.9-13.6,7.6-20.4,7.6c-10.4,0-19.8-5.6-19.8-16.9c0-13.9,12-16,22.8-17.3c9.2-1.7,17.3-1.5,17.3-9
		c0-6.6-7.2-8.3-12.4-8.3c-7.2,0-13,3-13.6,9.3h-12c0.9-14.9,13.6-19,26.3-19c11.3,0,23.2,4.6,23.2,16.8V276.2"/>
	
		<linearGradient id="SVGID_3_" gradientUnits="userSpaceOnUse" x1="-1.8117" y1="-0.4735" x2="1.6255" y2="-0.4735" gradientTransform="matrix(0 -18.0013 17.9837 0 246.0469 258.8549)">
		<stop  offset="0" style="stop-color:#6D6E70"/>
		<stop  offset="0.15" style="stop-color:#77787B"/>
		<stop  offset="0.3" style="stop-color:#808285"/>
		<stop  offset="0.5" style="stop-color:#A8AAAD"/>
		<stop  offset="0.7" style="stop-color:#808285"/>
		<stop  offset="0.8462" style="stop-color:#77787B"/>
		<stop  offset="1" style="stop-color:#6D6E70"/>
	</linearGradient>
	<path class="st2" d="M252.5,255.4c-0.5-8.2-6-16.2-14.8-16.2c-9,0-15.1,7.4-15.5,16.2H252.5z M222.3,263.9c0,9.2,5,17.4,15.8,17.4
		c7.5,0,12.1-3.3,14.3-9.8h12.3c-2.8,12.8-13.8,20-26.6,20c-18.4,0-28.8-12.8-28.8-30.9c0-16.7,10.9-31,28.5-31
		c18.6,0,29.9,16.7,27.8,34.3H222.3"/>
	
		<linearGradient id="SVGID_4_" gradientUnits="userSpaceOnUse" x1="-1.7648" y1="1.7198" x2="1.6724" y2="1.7198" gradientTransform="matrix(0 -17.115 17.0975 0 262.1395 258.4104)">
		<stop  offset="0" style="stop-color:#6D6E70"/>
		<stop  offset="0.15" style="stop-color:#77787B"/>
		<stop  offset="0.3" style="stop-color:#808285"/>
		<stop  offset="0.5" style="stop-color:#A8AAAD"/>
		<stop  offset="0.7" style="stop-color:#808285"/>
		<stop  offset="0.8462" style="stop-color:#77787B"/>
		<stop  offset="1" style="stop-color:#6D6E70"/>
	</linearGradient>
	<path class="st3" d="M275,231.3h11.4V243h0.2c1.4-6.1,9-13.2,16.7-13.2c2.9,0,3.6,0.2,4.8,0.3V242c-1.8-0.2-3.7-0.6-5.4-0.6
		c-8.6,0-15.5,7.3-15.5,19.9v27.3H275V231.3"/>
	
		<linearGradient id="SVGID_5_" gradientUnits="userSpaceOnUse" x1="-1.7749" y1="3.7439" x2="1.6621" y2="3.7439" gradientTransform="matrix(0 -17.335 17.3175 0 276.6855 258.635)">
		<stop  offset="0" style="stop-color:#6D6E70"/>
		<stop  offset="0.15" style="stop-color:#77787B"/>
		<stop  offset="0.3" style="stop-color:#808285"/>
		<stop  offset="0.5" style="stop-color:#A8AAAD"/>
		<stop  offset="0.7" style="stop-color:#808285"/>
		<stop  offset="0.8462" style="stop-color:#77787B"/>
		<stop  offset="1" style="stop-color:#6D6E70"/>
	</linearGradient>
	<path class="st4" d="M316.1,231.4h11.5v8.5l0.5,0.2c3.8-6.4,10.4-10.3,18.1-10.3c12.6,0,20.8,6.7,20.8,19.8v39.8h-12v-36.5
		c-0.2-9.1-4.9-13-12.4-13c-8.5,0-14.2,6.7-14.2,15.3v34.2h-12.2V231.4"/>
	<path id="XMLID_2_" class="st5" d="M184.7,288c-1.8,1.5-1.8,1.5-2.1,1.7l0.3,0.2h14l0.4-0.1c-1.4-1.2-2.1-1.8-2.1-1.8L184.7,288"/>
	
		<linearGradient id="SVGID_6_" gradientUnits="userSpaceOnUse" x1="-5.9694" y1="-3.0683" x2="-2.5323" y2="-3.0683" gradientTransform="matrix(9.3784 -1.9201 1.9183 9.3877 225.533 238.6141)">
		<stop  offset="0" style="stop-color:#96989B"/>
		<stop  offset="0.6509" style="stop-color:#231F20"/>
		<stop  offset="1" style="stop-color:#231F20"/>
	</linearGradient>
	<polyline class="st6" points="159,218.9 157.3,220.6 157.7,220.8 182.4,220.8 184.8,218.9 159,218.9 	"/>
	
		<linearGradient id="SVGID_7_" gradientUnits="userSpaceOnUse" x1="-4.9668" y1="-2.3174" x2="-1.5296" y2="-2.3174" gradientTransform="matrix(7.6685 9.880000e-002 -9.870000e-002 7.6761 234.841 237.9452)">
		<stop  offset="0" style="stop-color:#4C4C4E"/>
		<stop  offset="0.5148" style="stop-color:#CDCFD0"/>
		<stop  offset="0.5148" style="stop-color:#CDCFD0"/>
		<stop  offset="1" style="stop-color:#8F9194"/>
	</linearGradient>
	<polyline class="st7" points="222.8,220.6 221.1,218.9 195.6,218.9 195.4,219 197.7,220.8 222.5,220.8 222.8,220.6 	"/>
	<polygon id="XMLID_7_" class="st8" points="182.7,289.7 182.5,289.4 182.6,289.3 182.7,289.7 	"/>
	<polygon id="XMLID_8_" class="st9" points="182.7,289.7 182.6,289.3 182.7,289.2 182.8,289.6 	"/>
	<polygon id="XMLID_9_" class="st10" points="182.8,289.6 182.7,289.2 182.8,289.2 182.9,289.5 	"/>
	<polygon id="XMLID_10_" class="st11" points="182.9,289.5 182.8,289.2 182.9,289.1 183,289.5 	"/>
	<polygon id="XMLID_11_" class="st12" points="182.5,289.4 182.5,289 182.7,288.8 182.7,289.2 	"/>
	<polygon id="XMLID_12_" class="st13" points="182.7,289.2 182.7,288.8 183,288.7 182.9,289.1 	"/>
	<polygon id="XMLID_13_" class="st14" points="183,289.5 183,288.7 183.1,288.6 183.1,289.4 	"/>
	<polygon id="XMLID_14_" class="st15" points="183.1,289.4 183.1,288.6 183.2,288.5 183.2,289.3 	"/>
	<polygon id="XMLID_15_" class="st16" points="183.2,289.3 183.2,288.5 183.4,288.4 183.3,289.2 	"/>
	<polygon id="XMLID_16_" class="st17" points="183.3,289.2 183.4,288.4 183.5,288.4 183.4,289.1 	"/>
	<polygon id="XMLID_17_" class="st18" points="183.4,289.1 183.5,288.4 183.8,288.1 183.7,288.8 	"/>
	<polygon id="XMLID_18_" class="st18" points="183.7,288.8 183.8,288.1 184.1,287.8 184.1,288.6 	"/>
	<polygon id="XMLID_19_" class="st18" points="184.1,288.6 184.1,287.8 184.7,287.1 184.7,288 	"/>
	<polygon id="XMLID_20_" class="st19" points="182.5,289 182.7,288.8 182.7,288 182.5,288.1 	"/>
	<polygon id="XMLID_21_" class="st20" points="182.5,288.1 182.7,288 182.7,287.3 182.5,287.3 	"/>
	<polygon id="XMLID_22_" class="st21" points="182.7,288.8 183,288.7 183,288 182.7,288 	"/>
	<polygon id="XMLID_23_" class="st21" points="182.7,288 183,288 183.1,287.4 182.7,287.3 	"/>
	<polygon id="XMLID_24_" class="st22" points="182.5,287.3 182.7,287.3 182.7,286.5 182.5,286.4 	"/>
	<polygon id="XMLID_25_" class="st23" points="182.5,286.4 182.7,286.5 182.7,285.6 182.5,285.6 	"/>
	<polygon id="XMLID_26_" class="st24" points="182.7,287.3 183.1,287.4 183.2,286.7 182.7,286.5 	"/>
	<polygon id="XMLID_27_" class="st25" points="182.7,286.5 183.2,286.7 183.2,285.9 182.7,285.6 	"/>
	<polygon id="XMLID_28_" class="st26" points="183,288.7 183.2,288.5 183.4,288 183,288 	"/>
	<polygon id="XMLID_29_" class="st27" points="183,288 183.4,288 183.5,287.5 183.1,287.4 	"/>
	<path id="XMLID_30_" class="st28" d="M183.2,288.5c0.1-0.4,0.2-0.7,0.3-1l0.3,0c-0.1,0.3-0.2,0.5-0.3,0.9L183.2,288.5z"/>
	<polygon id="XMLID_31_" class="st29" points="183.1,287.4 183.5,287.5 183.6,287 183.2,286.7 	"/>
	<polygon id="XMLID_32_" class="st30" points="183.2,286.7 183.6,287 183.7,286.3 183.2,285.9 	"/>
	<path id="XMLID_33_" class="st31" d="M183.5,287.5c0.1-0.3,0.2-0.7,0.2-1.3l0.3,0.1c0,0.6-0.1,0.9-0.2,1.2L183.5,287.5z"/>
	<path id="XMLID_34_" class="st32" d="M183.5,288.4c0.1-0.4,0.2-0.6,0.3-0.9l0.3-0.4c-0.1,0.3-0.2,0.6-0.3,1L183.5,288.4z"/>
	<path id="XMLID_35_" class="st33" d="M183.8,288.1c0.1-0.4,0.2-0.7,0.3-1l0.2-0.6c-0.1,0.4-0.1,0.8-0.2,1.3L183.8,288.1z"/>
	<path id="XMLID_36_" class="st34" d="M183.8,287.5c0.1-0.3,0.2-0.6,0.2-1.2l0.2-0.5c0,0.6-0.1,0.9-0.2,1.3L183.8,287.5z"/>
	<path id="XMLID_37_" class="st35" d="M184.1,287.1c0.1-0.3,0.2-0.7,0.2-1.3l0.1-0.8c0,0.6,0,1-0.1,1.5L184.1,287.1z"/>
	<path id="XMLID_38_" class="st36" d="M184.1,287.8l0.6-0.6c0-0.6,0-1.1,0-1.7c-0.2,0.2-0.4,0.6-0.5,1.1
		C184.2,286.9,184.1,287.3,184.1,287.8z"/>
	<path id="XMLID_39_" class="st37" d="M184.3,286.5c0.1-0.4,0.1-0.9,0.1-1.5l0.1-0.8c0,0.6,0,1.1,0,1.6L184.3,286.5z"/>
	<path id="XMLID_40_" class="st36" d="M184.5,285.9c0-0.5,0-1.1,0-1.6l0.2-0.5c0,0.6,0,1.1,0,1.7L184.5,285.9z"/>
	<path id="XMLID_41_" class="st38" d="M182.5,285.6l0.3,0.1c0-1.5,0-3.1,0-4.6l-0.3,0C182.5,282.5,182.5,284,182.5,285.6z"/>
	<path id="XMLID_42_" class="st39" d="M182.4,281l0.3,0c0-1.6,0-3.1,0-4.7l-0.3,0C182.4,277.9,182.4,279.4,182.4,281z"/>
	<path id="XMLID_43_" class="st40" d="M182.7,285.6l0.5,0.3c0-1.5,0-3.1,0-4.7l-0.4-0.2C182.7,282.5,182.7,284.1,182.7,285.6z"/>
	<path id="XMLID_44_" class="st41" d="M182.7,281l0.4,0.2c0-1.6-0.1-3.2-0.1-4.8l-0.4-0.1C182.7,277.9,182.7,279.4,182.7,281z"/>
	<path id="XMLID_45_" class="st42" d="M182.4,276.3l0.3,0c0-1.6,0-3.1,0-4.7l-0.2,0.1C182.4,273.3,182.4,274.8,182.4,276.3z"/>
	<path id="XMLID_46_" class="st43" d="M182.4,271.7L182.4,271.7c0.1-0.8,0.1-1.6,0.1-2.4l-0.1,0.1
		C182.4,270.2,182.4,271,182.4,271.7z"/>
	<path id="XMLID_47_" class="st44" d="M182.4,269.4L182.4,269.4c0.1-0.8,0.1-1.6,0.1-2.4l-0.1,0.1
		C182.4,267.9,182.4,268.7,182.4,269.4z"/>
	<path id="XMLID_48_" class="st45" d="M182.5,271.7c0-1.5,0-3.1,0-4.6l0.1-0.1c0,1.5,0,3.1,0,4.6L182.5,271.7z"/>
	<path id="XMLID_49_" class="st46" d="M182.7,276.3l0.4,0.1c0-1.6-0.1-3.2-0.1-4.8l-0.3,0.1C182.7,273.2,182.7,274.7,182.7,276.3z"
		/>
	<path id="XMLID_50_" class="st47" d="M182.7,271.6c0-1.6,0-3.1,0-4.6l0.1-0.1c0,1.5,0,3.1,0,4.7L182.7,271.6z"/>
	<path id="XMLID_51_" class="st48" d="M182.8,271.6c0-1.6,0-3.1,0-4.7l0.1-0.1c0,1.5,0,3.1,0,4.7L182.8,271.6z"/>
	<path id="XMLID_52_" class="st13" d="M183.2,285.9l0.5,0.3c0-0.8,0-1.6,0-2.4l-0.5-0.3C183.2,284.4,183.2,285.2,183.2,285.9z"/>
	<path id="XMLID_53_" class="st49" d="M183.2,283.6l0.5,0.3c0-0.8,0-1.6-0.1-2.4l-0.4-0.2C183.2,282,183.2,282.8,183.2,283.6z"/>
	<path id="XMLID_54_" class="st50" d="M183.2,281.2l0.4,0.2c0-1.6-0.1-3.3-0.2-5l-0.4-0.1C183.1,278,183.1,279.6,183.2,281.2z"/>
	<path id="XMLID_55_" class="st51" d="M183.7,286.3l0.3,0.1c0-0.8,0-1.6,0-2.4l-0.3-0.1C183.7,284.7,183.7,285.5,183.7,286.3z"/>
	<path id="XMLID_56_" class="st48" d="M183.7,283.9l0.3,0.1c0-0.8,0-1.6-0.1-2.5l-0.3,0C183.6,282.3,183.7,283.1,183.7,283.9z"/>
	<path id="XMLID_57_" class="st52" d="M183.6,281.5c0-1.6-0.1-3.3-0.2-5l0.2,0c0.1,1.7,0.1,3.4,0.2,5.1L183.6,281.5z"/>
	<path id="XMLID_58_" class="st52" d="M183.8,281.5l0.1,0c0-0.8-0.1-1.7-0.1-2.5l-0.1,0C183.7,279.9,183.8,280.7,183.8,281.5z"/>
	<path id="XMLID_59_" class="st53" d="M183.7,279l0.1,0c0-0.8-0.1-1.7-0.1-2.6l-0.1,0C183.6,277.3,183.7,278.2,183.7,279z"/>
	<path id="XMLID_60_" class="st54" d="M183.1,276.4l0.4,0.1c-0.1-1.7-0.1-3.4-0.2-5l-0.3,0.1C183,273.2,183,274.8,183.1,276.4z"/>
	<path id="XMLID_61_" class="st55" d="M183,271.5c0-1.6,0-3.2,0-4.7l0.2-0.1c0,1.5,0,3.1,0.1,4.8L183,271.5z"/>
	<path id="XMLID_62_" class="st23" d="M183.2,271.5c0-1.6-0.1-3.2-0.1-4.8l0.1-0.1c0,1.5,0,3.1,0.1,4.8L183.2,271.5z"/>
	<path id="XMLID_63_" class="st56" d="M183.5,276.5c-0.1-1.7-0.1-3.4-0.2-5l0.1-0.1c0,1.7,0.1,3.4,0.2,5.1L183.5,276.5z"/>
	<path id="XMLID_64_" class="st57" d="M183.6,276.5c-0.1-1.7-0.1-3.4-0.2-5.1l0.1-0.1c0,1.7,0.1,3.4,0.2,5.1L183.6,276.5z"/>
	<path id="XMLID_65_" class="st20" d="M183.3,271.5c0-1.6-0.1-3.2-0.1-4.8l0.1-0.1c0,1.5,0,3.2,0.1,4.8L183.3,271.5z"/>
	<path id="XMLID_66_" class="st58" d="M183.4,271.4c0-1.7-0.1-3.3-0.1-4.8l0.1-0.1C183.5,268.1,183.5,269.7,183.4,271.4L183.4,271.4
		z"/>
	<path id="XMLID_67_" class="st59" d="M184,286.3l0.2-0.5c0-0.8,0-1.6,0-2.4L184,284C184,284.8,184,285.6,184,286.3z"/>
	<path id="XMLID_68_" class="st60" d="M184,284l0.2-0.5c0-0.8,0-1.6-0.1-2.4l-0.3,0.5C183.9,282.3,183.9,283.2,184,284z"/>
	<path id="XMLID_69_" class="st61" d="M183.9,281.5l0.3-0.5c0-0.8,0-1.7-0.1-2.5l-0.3,0.5C183.8,279.8,183.9,280.7,183.9,281.5z"/>
	<path id="XMLID_70_" class="st38" d="M183.8,279l0.3-0.5c0-0.8-0.1-1.7-0.1-2.5l-0.3,0.4C183.7,277.3,183.8,278.1,183.8,279z"/>
	<path id="XMLID_71_" class="st62" d="M184.2,285.8l0.1-0.8c0-1.5,0-3.1,0-4.7l-0.2,0.7C184.2,282.7,184.2,284.3,184.2,285.8z"/>
	<path id="XMLID_72_" class="st63" d="M184.1,281l0.2-0.7c0-1.6-0.1-3.2-0.1-4.8L184,276C184.1,277.7,184.1,279.4,184.1,281z"/>
	<path id="XMLID_73_" class="st64" d="M183.7,276.4l0.3-0.4c-0.1-1.7-0.1-3.4-0.2-5l-0.3,0.4C183.6,273,183.6,274.7,183.7,276.4z"/>
	<path id="XMLID_74_" class="st12" d="M183.5,271.4c0-1.7-0.1-3.3-0.1-4.8l0.2-0.2c0,1.5,0,3.2,0.1,4.8L183.5,271.4z"/>
	<path id="XMLID_75_" class="st65" d="M183.7,271.2c0-1.7-0.1-3.3-0.1-4.8l0.2-0.2c0,1.5,0,3.1,0.1,4.8L183.7,271.2z"/>
	<path id="XMLID_76_" class="st66" d="M184,276l0.2-0.6c0-1.6-0.1-3.2-0.1-4.8l-0.3,0.4C183.9,272.7,183.9,274.3,184,276z"/>
	<path id="XMLID_77_" class="st64" d="M183.8,271l0.1-0.2c0-0.8,0-1.6,0-2.4l-0.2,0.2C183.8,269.4,183.8,270.2,183.8,271z"/>
	<path id="XMLID_78_" class="st67" d="M183.8,268.6l0.2-0.2c0-0.8,0-1.6,0-2.3l-0.2,0.2C183.8,267,183.8,267.8,183.8,268.6z"/>
	<path id="XMLID_79_" class="st68" d="M184,270.8l0.1-0.2c0-0.8,0-1.6,0-2.4l-0.2,0.2C184,269.2,184,270,184,270.8z"/>
	<path id="XMLID_80_" class="st69" d="M184,268.4l0.2-0.2c0-0.8,0-1.6,0-2.3l-0.2,0.2C183.9,266.8,183.9,267.6,184,268.4z"/>
	<path id="XMLID_81_" class="st32" d="M184.4,285l0.1-0.8c0-1.5,0-3.1,0-4.6l-0.2,0.7C184.3,281.9,184.4,283.5,184.4,285z"/>
	<path id="XMLID_82_" class="st70" d="M184.3,280.3l0.2-0.7c0-1.6,0-3.1,0-4.7l-0.2,0.6C184.3,277.1,184.3,278.7,184.3,280.3z"/>
	<path id="XMLID_83_" class="st17" d="M184.5,284.2l0.2-0.5c0-1.5,0-3.1,0-4.6l-0.3,0.5C184.5,281.1,184.5,282.7,184.5,284.2z"/>
	<path id="XMLID_84_" class="st71" d="M184.5,279.6l0.3-0.5c0-1.5,0-3.1,0-4.6l-0.3,0.4C184.5,276.5,184.5,278,184.5,279.6z"/>
	<path id="XMLID_85_" class="st72" d="M184.2,275.5l0.2-0.6c0-1.6,0-3.1,0-4.7l-0.3,0.4C184.2,272.2,184.2,273.8,184.2,275.5z"/>
	<path id="XMLID_86_" class="st25" d="M184.1,270.6l0.1-0.2c0-0.8,0-1.6,0-2.4l-0.2,0.2C184.1,269,184.1,269.8,184.1,270.6z"/>
	<path id="XMLID_87_" class="st66" d="M184.1,268.2l0.2-0.2c0-0.8,0-1.6,0-2.3l-0.2,0.2C184.1,266.7,184.1,267.4,184.1,268.2z"/>
	<path id="XMLID_88_" class="st73" d="M184.3,270.4l0.1-0.2c0-0.8,0-1.6,0-2.3l-0.2,0.2C184.3,268.8,184.3,269.6,184.3,270.4z"/>
	<path id="XMLID_89_" class="st21" d="M184.3,268.1l0.2-0.2c0-0.8,0-1.5,0-2.3l-0.2,0.2C184.3,266.5,184.3,267.3,184.3,268.1z"/>
	<path id="XMLID_90_" class="st74" d="M184.5,274.9l0.3-0.4c0-1.5,0-3.1,0-4.6l-0.3,0.4C184.4,271.8,184.5,273.3,184.5,274.9z"/>
	<path id="XMLID_91_" class="st75" d="M184.4,270.2c0-1.6,0-3.1,0-4.6l0.2-0.2c0,1.5,0,3.1,0,4.6L184.4,270.2z"/>
	<path id="XMLID_92_" class="st76" d="M184.6,270c0-1.5,0-3.1,0-4.6l0.2-0.2c0,1.5,0,3.1,0,4.6L184.6,270z"/>
	<path id="XMLID_93_" class="st18" d="M182.4,267.1c0-3.9,0-7.7,0-11.6l0.1-0.1C182.5,259.3,182.5,263.2,182.4,267.1L182.4,267.1z"
		/>
	<path id="XMLID_94_" class="st77" d="M182.5,267.1c0-3.9,0-7.7,0-11.6l0.1-0.1c0,3.9,0,7.7,0,11.6L182.5,267.1z"/>
	<path id="XMLID_95_" class="st18" d="M182.4,255.5l0.2-0.1c0-3.9,0-7.7,0-11.6l-0.2,0.1C182.4,247.8,182.4,251.7,182.4,255.5z"/>
	<path id="XMLID_96_" class="st78" d="M182.7,267l0.1-0.1c0-1.9,0-3.9,0-5.8l-0.1,0.1C182.7,263.1,182.7,265,182.7,267z"/>
	<path id="XMLID_97_" class="st79" d="M182.7,261.2l0.1-0.1c0-1.9,0-3.9,0-5.8l-0.1,0.1C182.7,257.3,182.7,259.3,182.7,261.2z"/>
	<path id="XMLID_98_" class="st48" d="M182.8,266.9l0.1-0.1c0-1.9,0-3.9,0-5.8l-0.1,0.1C182.8,263,182.8,265,182.8,266.9z"/>
	<path id="XMLID_99_" class="st21" d="M182.8,261.1l0.1-0.1c0-1.9,0-3.9,0-5.8l-0.1,0.1C182.8,257.3,182.8,259.2,182.8,261.1z"/>
	<path id="XMLID_100_" class="st75" d="M182.7,255.4l0.3-0.1c0-3.9,0-7.7,0-11.6l-0.3,0.1C182.7,247.7,182.7,251.5,182.7,255.4z"/>
	<path id="XMLID_101_" class="st18" d="M182.4,243.9l0.2-0.1c0-3.9,0-7.7,0-11.6l-0.2,0.1C182.4,236.2,182.4,240.1,182.4,243.9z"/>
	<path id="XMLID_102_" class="st18" d="M182.4,232.4l0.2-0.1c0-3.9,0-7.7,0-11.6l-0.2,0.1C182.4,224.6,182.4,228.5,182.4,232.4z"/>
	<path id="XMLID_103_" class="st80" d="M182.7,243.8l0.3-0.1c0-3.9,0-7.7,0-11.6l-0.3,0.1C182.7,236.1,182.7,239.9,182.7,243.8z"/>
	<path id="XMLID_104_" class="st35" d="M182.7,232.2l0.3-0.1c0-3.9,0-7.7,0-11.6l-0.3,0.1C182.7,224.5,182.7,228.4,182.7,232.2z"/>
	<path id="XMLID_105_" class="st81" d="M182.9,266.8l0.2-0.1c0-1.9,0-3.9,0-5.8l-0.2,0.1C182.9,263,182.9,264.9,182.9,266.8z"/>
	<path id="XMLID_106_" class="st66" d="M182.9,261l0.2-0.1c0-1.9,0-3.9,0-5.8l-0.2,0.1C182.9,257.2,182.9,259.1,182.9,261z"/>
	<path id="XMLID_107_" class="st56" d="M183.1,266.8l0.1-0.1c0-1.9,0-3.9,0-5.8l-0.1,0.1C183.1,262.9,183.1,264.8,183.1,266.8z"/>
	<path id="XMLID_108_" class="st69" d="M183.1,261l0.1-0.1c0-1.9,0-3.9,0-5.8l-0.1,0.1C183.1,257.1,183.1,259,183.1,261z"/>
	<path id="XMLID_109_" class="st25" d="M182.9,255.2l0.3-0.1c0-3.9,0-7.7,0-11.6l-0.3,0.1C182.9,247.5,182.9,251.4,182.9,255.2z"/>
	<path id="XMLID_110_" class="st82" d="M183.2,266.7l0.1-0.1c0-1.9,0-3.9,0-5.8l-0.1,0.1C183.2,262.8,183.2,264.8,183.2,266.7z"/>
	<path id="XMLID_111_" class="st20" d="M183.2,260.9l0.1-0.1c0-1.9,0-3.9,0-5.8l-0.1,0.1C183.2,257,183.2,259,183.2,260.9z"/>
	<path id="XMLID_112_" class="st83" d="M183.4,266.6L183.4,266.6c0.1-2,0.1-3.9,0.1-5.9l-0.1,0.1
		C183.4,262.8,183.4,264.7,183.4,266.6z"/>
	<path id="XMLID_113_" class="st58" d="M183.4,260.8L183.4,260.8c0.1-2,0.1-3.9,0.1-5.9l-0.1,0.1C183.4,257,183.4,258.9,183.4,260.8
		z"/>
	<path id="XMLID_114_" class="st84" d="M183.2,255.1l0.1-0.1c0-1.9,0-3.9,0-5.8l-0.1,0.1C183.2,251.2,183.2,253.2,183.2,255.1z"/>
	<path id="XMLID_115_" class="st85" d="M183.2,249.3l0.1-0.1c0-1.9,0-3.9,0-5.8l-0.1,0.1C183.2,245.4,183.2,247.4,183.2,249.3z"/>
	<path id="XMLID_116_" class="st20" d="M183.4,255L183.4,255c0.1-2,0.1-3.9,0.1-5.9l-0.1,0.1C183.4,251.2,183.4,253.1,183.4,255z"/>
	<path id="XMLID_117_" class="st69" d="M183.4,249.2L183.4,249.2c0.1-2,0.1-3.9,0.1-5.9l-0.1,0.1
		C183.4,245.4,183.4,247.3,183.4,249.2z"/>
	<path id="XMLID_118_" class="st63" d="M182.9,243.7l0.3-0.1c0-3.9,0-7.7,0-11.6l-0.3,0.1C182.9,235.9,182.9,239.8,182.9,243.7z"/>
	<path id="XMLID_119_" class="st80" d="M182.9,232.1l0.3-0.1c0-3.9,0-7.7,0-11.6l-0.3,0.1C182.9,224.3,182.9,228.2,182.9,232.1z"/>
	<path id="XMLID_120_" class="st25" d="M183.2,243.5c0-3.9,0-7.7,0-11.6l0.1-0.1c0,3.9,0,7.7,0,11.6L183.2,243.5z"/>
	<path id="XMLID_121_" class="st66" d="M183.4,243.4L183.4,243.4c0.1-2,0.1-3.9,0.1-5.9l-0.1,0.1
		C183.4,239.6,183.4,241.5,183.4,243.4z"/>
	<path id="XMLID_122_" class="st21" d="M183.4,237.6L183.4,237.6c0.1-2,0.1-3.9,0.1-5.9l-0.1,0.1
		C183.4,233.8,183.4,235.7,183.4,237.6z"/>
	<path id="XMLID_123_" class="st75" d="M183.2,231.9l0.2-0.1c0-1.9,0-3.9,0-5.8l-0.2,0.1C183.2,228.1,183.2,230,183.2,231.9z"/>
	<path id="XMLID_124_" class="st76" d="M183.2,226.1l0.2-0.1c0-1.9,0-3.9,0-5.8l-0.2,0.1C183.2,222.3,183.2,224.2,183.2,226.1z"/>
	<path id="XMLID_125_" class="st8" d="M183.5,266.5l0.2-0.2c0-1.9,0-3.9,0-5.8l-0.2,0.2C183.5,262.7,183.5,264.6,183.5,266.5z"/>
	<path id="XMLID_126_" class="st83" d="M183.5,260.7l0.2-0.2c0-1.9,0-3.9,0-5.8l-0.2,0.2C183.5,256.9,183.5,258.8,183.5,260.7z"/>
	<path id="XMLID_127_" class="st83" d="M183.6,266.4l0.2-0.2c0-1.9,0-3.9,0-5.8l-0.2,0.2C183.6,262.5,183.6,264.5,183.6,266.4z"/>
	<path id="XMLID_128_" class="st58" d="M183.6,260.6l0.2-0.2c0-1.9,0-3.9,0-5.8l-0.2,0.2C183.6,256.7,183.6,258.7,183.6,260.6z"/>
	<path id="XMLID_129_" class="st82" d="M183.5,255l0.2-0.2c0-1.9,0-3.9,0-5.8l-0.2,0.2C183.5,251.1,183.5,253,183.5,255z"/>
	<path id="XMLID_130_" class="st56" d="M183.5,249.2l0.2-0.2c0-1.9,0-3.9,0-5.8l-0.2,0.2C183.5,245.3,183.5,247.2,183.5,249.2z"/>
	<path id="XMLID_131_" class="st20" d="M183.6,254.8l0.2-0.2c0-1.9,0-3.9,0-5.8l-0.2,0.2C183.6,250.9,183.6,252.9,183.6,254.8z"/>
	<path id="XMLID_132_" class="st69" d="M183.6,249l0.2-0.2c0-1.9,0-3.9,0-5.8l-0.2,0.2C183.6,245.1,183.6,247.1,183.6,249z"/>
	<path id="XMLID_133_" class="st82" d="M183.8,266.2l0.2-0.2c0-1.9,0-3.9,0-5.8l-0.2,0.2C183.8,262.4,183.8,264.3,183.8,266.2z"/>
	<path id="XMLID_134_" class="st20" d="M183.8,260.4l0.2-0.2c0-1.9,0-3.9,0-5.8l-0.2,0.2C183.8,256.6,183.8,258.5,183.8,260.4z"/>
	<path id="XMLID_135_" class="st56" d="M183.9,266.1l0.2-0.2c0-1.9,0-3.9,0-5.8l-0.2,0.2C183.9,262.2,183.9,264.1,183.9,266.1z"/>
	<path id="XMLID_136_" class="st69" d="M183.9,260.3l0.2-0.2c0-1.9,0-3.9,0-5.8l-0.2,0.2C183.9,256.4,183.9,258.3,183.9,260.3z"/>
	<path id="XMLID_137_" class="st84" d="M183.8,254.6l0.3-0.3c0-3.9,0-7.7,0-11.6l-0.3,0.3C183.8,246.9,183.8,250.8,183.8,254.6z"/>
	<path id="XMLID_138_" class="st81" d="M183.5,243.4l0.2-0.2c0-1.9,0-3.9,0-5.8l-0.2,0.2C183.5,239.5,183.5,241.4,183.5,243.4z"/>
	<path id="XMLID_139_" class="st48" d="M183.5,237.6l0.2-0.2c0-1.9,0-3.9,0-5.8l-0.2,0.2C183.5,233.7,183.5,235.6,183.5,237.6z"/>
	<path id="XMLID_140_" class="st66" d="M183.6,243.2c0-3.9,0-7.7,0-11.6l0.2-0.2c0,3.9,0,7.7,0,11.6L183.6,243.2z"/>
	<path id="XMLID_141_" class="st78" d="M183.5,231.8l0.3-0.3c0-1.9,0-3.9,0-5.8l-0.3,0.3C183.5,227.9,183.5,229.8,183.5,231.8z"/>
	<path id="XMLID_142_" class="st77" d="M183.5,226l0.3-0.3c0-1.9,0-3.9,0-5.8l-0.3,0.3C183.5,222.1,183.5,224.1,183.5,226z"/>
	<path id="XMLID_143_" class="st25" d="M183.8,243l0.3-0.3c0-3.9,0-7.7,0-11.6l-0.3,0.3C183.8,235.3,183.8,239.2,183.8,243z"/>
	<path id="XMLID_144_" class="st75" d="M183.8,231.4l0.3-0.3c0-3.9,0-7.7,0-11.6l-0.3,0.3C183.8,223.7,183.8,227.6,183.8,231.4z"/>
	<path id="XMLID_145_" class="st81" d="M184.1,265.9l0.2-0.2c0-1.9,0-3.9,0-5.8l-0.2,0.2C184.1,262,184.1,264,184.1,265.9z"/>
	<path id="XMLID_146_" class="st66" d="M184.1,260.1l0.2-0.2c0-1.9,0-3.9,0-5.8l-0.2,0.2C184.1,256.2,184.1,258.2,184.1,260.1z"/>
	<path id="XMLID_147_" class="st48" d="M184.3,265.7l0.2-0.2c0-1.9,0-3.9,0-5.8l-0.2,0.2C184.3,261.9,184.3,263.8,184.3,265.7z"/>
	<path id="XMLID_148_" class="st21" d="M184.3,259.9l0.2-0.2c0-1.9,0-3.9,0-5.8l-0.2,0.2C184.3,256.1,184.3,258,184.3,259.9z"/>
	<path id="XMLID_149_" class="st25" d="M184.1,254.3l0.3-0.3c0-3.9,0-7.7,0-11.6l-0.3,0.3C184.1,246.6,184.1,250.4,184.1,254.3z"/>
	<path id="XMLID_150_" class="st78" d="M184.4,265.6c0-3.9,0-7.7,0-11.6l0.2-0.2c0,3.9,0,7.7,0,11.6L184.4,265.6z"/>
	<path id="XMLID_151_" class="st77" d="M184.6,265.4c0-3.9,0-7.7,0-11.6l0.2-0.2c0,3.9,0,7.7,0,11.6L184.6,265.4z"/>
	<path id="XMLID_152_" class="st75" d="M184.4,254l0.3-0.3c0-3.9,0-7.7,0-11.6l-0.3,0.3C184.4,246.3,184.4,250.1,184.4,254z"/>
	<path id="XMLID_153_" class="st63" d="M184.1,242.7l0.3-0.3c0-3.9,0-7.7,0-11.6l-0.3,0.3C184.1,235,184.1,238.8,184.1,242.7z"/>
	<path id="XMLID_154_" class="st80" d="M184.1,231.1l0.3-0.3c0-3.9,0-7.7,0-11.6l-0.3,0.3C184.1,223.4,184.1,227.3,184.1,231.1z"/>
	<path id="XMLID_155_" class="st80" d="M184.4,242.4l0.3-0.3c0-3.9,0-7.7,0-11.6l-0.3,0.3C184.4,234.7,184.4,238.5,184.4,242.4z"/>
	<path id="XMLID_156_" class="st35" d="M184.4,230.8l0.3-0.3c0-3.9,0-7.7,0-11.6l-0.3,0.3C184.4,223.1,184.4,226.9,184.4,230.8z"/>
	<polygon id="XMLID_157_" class="st8" points="195.2,288 195.9,288.5 195.9,288.3 195.2,287.8 	"/>
	<polygon id="XMLID_158_" class="st8" points="195.2,287.8 195.9,288.3 195.9,288 195.2,287.5 	"/>
	<polygon id="XMLID_159_" class="st86" points="195.9,288.5 195.9,288.3 196.2,288.5 196.2,288.8 	"/>
	<polygon id="XMLID_160_" class="st87" points="196.2,288.8 196.2,288.5 196.5,288.8 196.5,289 	"/>
	<polygon id="XMLID_161_" class="st88" points="195.9,288.3 196.5,288.8 196.5,288.5 195.9,288 	"/>
	<polygon id="XMLID_162_" class="st89" points="196.5,289 197,289.5 197,289.2 196.5,288.8 	"/>
	<polygon id="XMLID_163_" class="st83" points="196.5,288.8 196.5,288.5 196.8,288.8 196.8,289 	"/>
	<polygon id="XMLID_164_" class="st90" points="196.8,289 197,289.2 197.1,289.1 196.8,288.9 	"/>
	<polygon id="XMLID_165_" class="st8" points="196.8,288.9 197.1,289.1 197.1,289 196.8,288.8 	"/>
	<polygon id="XMLID_166_" class="st91" points="197,289.5 197.3,289.8 197.5,289.5 197,289.2 	"/>
	<polygon id="XMLID_167_" class="st92" points="197,289.2 197.3,289.4 197.3,289.2 197.1,289.1 	"/>
	<polygon id="XMLID_168_" class="st93" points="197.1,289.1 197.3,289.2 197.3,289.1 197.1,289 	"/>
	<polygon id="XMLID_169_" class="st94" points="197.3,289.4 197.3,289.1 197.6,289.3 197.5,289.5 	"/>
	<path id="XMLID_170_" class="st8" d="M195.2,287.5l0.4,0.3c0-3.3,0-6.6,0-9.9l-0.3-0.3C195.2,280.9,195.2,284.2,195.2,287.5z"/>
	<path id="XMLID_171_" class="st8" d="M195.2,277.7l0.3,0.3c0-3.3,0-6.6,0-9.9l-0.3-0.3C195.3,271.1,195.3,274.4,195.2,277.7z"/>
	<path id="XMLID_172_" class="st12" d="M195.6,287.8l0.3,0.2c0-3.3,0-6.6,0-9.9l-0.3-0.2C195.6,281.2,195.6,284.5,195.6,287.8z"/>
	<path id="XMLID_173_" class="st95" d="M195.6,277.9l0.3,0.2c0-3.3,0-6.6,0-9.9l-0.3-0.3C195.6,271.4,195.6,274.6,195.6,277.9z"/>
	<path id="XMLID_174_" class="st8" d="M195.3,267.8l0.3,0.3c0-3.3,0-6.6,0-9.9l-0.3-0.3C195.3,261.2,195.3,264.5,195.3,267.8z"/>
	<path id="XMLID_175_" class="st8" d="M195.3,257.9l0.3,0.3c0-3.3,0-6.6,0-9.9l-0.3-0.3C195.3,251.3,195.3,254.6,195.3,257.9z"/>
	<path id="XMLID_176_" class="st96" d="M195.6,268.1l0.3,0.3c0-3.3,0-6.6,0-9.9l-0.3-0.3C195.6,261.5,195.6,264.8,195.6,268.1z"/>
	<path id="XMLID_177_" class="st97" d="M195.6,258.2l0.3,0.3c0-3.3,0-6.6,0-9.9l-0.3-0.3C195.6,251.6,195.6,254.9,195.6,258.2z"/>
	<path id="XMLID_178_" class="st19" d="M195.9,288l0.3,0.2c0-1.6,0-3.3,0-4.9l-0.3-0.2C195.9,284.8,195.9,286.4,195.9,288z"/>
	<path id="XMLID_179_" class="st98" d="M195.9,283.1l0.3,0.2c0-1.6,0-3.3,0-4.9l-0.3-0.2C195.9,279.8,195.9,281.5,195.9,283.1z"/>
	<path id="XMLID_180_" class="st99" d="M195.9,278.2l0.3,0.2c0-1.6,0-3.3,0-4.9l-0.3-0.2C195.9,274.9,195.9,276.5,195.9,278.2z"/>
	<path id="XMLID_181_" class="st48" d="M195.9,273.2l0.3,0.2c0-1.6,0-3.3,0-4.9l-0.3-0.3C195.9,270,195.9,271.6,195.9,273.2z"/>
	<path id="XMLID_182_" class="st100" d="M196.2,288.3l0.1,0.1c0-1.6,0-3.3,0-4.9l-0.1-0.1C196.2,285,196.2,286.6,196.2,288.3z"/>
	<path id="XMLID_183_" class="st66" d="M196.2,283.3l0.1,0.1c0-1.6,0-3.3,0-4.9l-0.1-0.1C196.2,280.1,196.2,281.7,196.2,283.3z"/>
	<path id="XMLID_184_" class="st65" d="M196.3,288.4l0.1,0.1c0-1.6,0-3.3,0-4.9l-0.1-0.1C196.3,285.1,196.3,286.7,196.3,288.4z"/>
	<path id="XMLID_185_" class="st101" d="M196.3,283.5l0.1,0.1c0-1.6,0-3.3,0-4.9l-0.1-0.1C196.3,280.2,196.3,281.8,196.3,283.5z"/>
	<path id="XMLID_186_" class="st10" d="M196.2,278.4l0.1,0.1c0-1.6,0-3.3,0-4.9l-0.1-0.1C196.2,275.1,196.2,276.8,196.2,278.4z"/>
	<path id="XMLID_187_" class="st102" d="M196.2,273.5l0.1,0.1c0-1.6,0-3.3,0-4.9l-0.1-0.1C196.2,270.2,196.2,271.9,196.2,273.5z"/>
	<path id="XMLID_188_" class="st72" d="M196.3,278.5l0.1,0.1c0-1.6,0-3.3,0-4.9l-0.1-0.1C196.3,275.3,196.3,276.9,196.3,278.5z"/>
	<path id="XMLID_189_" class="st75" d="M196.3,273.6l0.1,0.1c0-1.6,0-3.3,0-4.9l-0.1-0.1C196.3,270.3,196.3,272,196.3,273.6z"/>
	<path id="XMLID_190_" class="st103" d="M195.9,268.3l0.3,0.3c0-3.3,0-6.6,0-9.8l-0.3-0.3C195.9,261.7,195.9,265,195.9,268.3z"/>
	<path id="XMLID_191_" class="st104" d="M195.8,258.5l0.3,0.3c0-3.3,0-6.6,0-9.9l-0.3-0.3C195.8,251.9,195.8,255.2,195.8,258.5z"/>
	<path id="XMLID_192_" class="st105" d="M196.1,268.6c0-3.3,0-6.6,0-9.8l0.1,0.1c0,3.3,0,6.6,0,9.8L196.1,268.6z"/>
	<path id="XMLID_193_" class="st106" d="M196.3,268.7c0-3.3,0-6.6,0-9.8l0.1,0.1c0,3.3,0,6.6,0,9.8L196.3,268.7z"/>
	<path id="XMLID_194_" class="st107" d="M196.1,258.7c0-3.3,0-6.6,0-9.9l0.1,0.1c0,3.3,0,6.6,0,9.9L196.1,258.7z"/>
	<path id="XMLID_195_" class="st62" d="M196.3,258.9c0-3.3,0-6.6,0-9.9l0.1,0.1c0,3.3,0,6.6,0,9.9L196.3,258.9z"/>
	<path id="XMLID_196_" class="st65" d="M196.5,288.5l0.2,0.2c0-1.6,0-3.3,0-4.9l-0.2-0.2C196.5,285.2,196.5,286.9,196.5,288.5z"/>
	<path id="XMLID_197_" class="st61" d="M196.5,283.6l0.2,0.2c0-1.6,0-3.3,0-4.9l-0.2-0.2C196.5,280.3,196.5,281.9,196.5,283.6z"/>
	<path id="XMLID_198_" class="st100" d="M196.6,288.7l0.2,0.1c0-1.6,0-3.3,0-4.9l-0.2-0.1C196.6,285.4,196.6,287,196.6,288.7z"/>
	<path id="XMLID_199_" class="st99" d="M196.6,283.7l0.2,0.1c0-1.6,0-3.3,0-4.9l-0.2-0.1C196.6,280.5,196.6,282.1,196.6,283.7z"/>
	<path id="XMLID_200_" class="st108" d="M196.4,278.7l0.2,0.2c0-1.6,0-3.3,0-4.9l-0.2-0.1C196.4,275.4,196.4,277,196.4,278.7z"/>
	<path id="XMLID_201_" class="st109" d="M196.4,273.7l0.2,0.1c0-1.6,0-3.3,0-4.9l-0.1-0.1C196.4,270.5,196.4,272.1,196.4,273.7z"/>
	<path id="XMLID_202_" class="st103" d="M196.6,278.8l0.2,0.1c0-1.6,0-3.3,0-4.9l-0.2-0.1C196.6,275.5,196.6,277.2,196.6,278.8z"/>
	<path id="XMLID_203_" class="st75" d="M196.6,273.9l0.2,0.1c0-1.6,0-3.3,0-4.9l-0.2-0.1C196.6,270.6,196.6,272.2,196.6,273.9z"/>
	<path id="XMLID_204_" class="st88" d="M196.8,288.8l0.3,0.2c0-1.6,0-3.3,0-4.9l-0.3-0.2C196.8,285.5,196.8,287.2,196.8,288.8z"/>
	<path id="XMLID_205_" class="st110" d="M196.8,283.9l0.3,0.2c0-1.6,0-3.3,0-4.9l-0.3-0.2C196.8,280.6,196.8,282.2,196.8,283.9z"/>
	<path id="XMLID_206_" class="st13" d="M196.8,278.9l0.3,0.2c0-1.6,0-3.3,0-4.9l-0.3-0.2C196.8,275.6,196.8,277.3,196.8,278.9z"/>
	<path id="XMLID_207_" class="st29" d="M196.8,274l0.3,0.2c0-1.6,0-3.3,0-4.9l-0.3-0.2C196.7,270.7,196.7,272.4,196.8,274z"/>
	<path id="XMLID_208_" class="st111" d="M196.4,268.8c0-3.3,0-6.6,0-9.8l0.1,0.1c0,3.3,0,6.6,0,9.8L196.4,268.8z"/>
	<path id="XMLID_209_" class="st106" d="M196.6,269c0-3.3,0-6.6,0-9.8l0.1,0.1c0,3.3,0,6.6,0,9.9L196.6,269z"/>
	<path id="XMLID_210_" class="st112" d="M196.4,259c0-3.3,0-6.6,0-9.9l0.1,0.1c0,3.3,0,6.6,0,9.9L196.4,259z"/>
	<path id="XMLID_211_" class="st62" d="M196.5,259.1c0-3.3,0-6.6,0-9.9l0.1,0.1c0,3.3,0,6.6,0,9.9L196.5,259.1z"/>
	<path id="XMLID_212_" class="st113" d="M196.7,269.1l0.3,0.2c0-3.3,0-6.6,0-9.8l-0.3-0.2C196.7,262.5,196.7,265.8,196.7,269.1z"/>
	<path id="XMLID_213_" class="st14" d="M196.7,259.2l0.3,0.2c0-3.3,0-6.6,0-9.9l-0.3-0.2C196.7,252.6,196.7,255.9,196.7,259.2z"/>
	<path id="XMLID_214_" class="st114" d="M197.1,289l0.2,0.1c0-3.3,0-6.6,0-9.9l-0.3-0.1C197.1,282.4,197.1,285.7,197.1,289z"/>
	<path id="XMLID_215_" class="st115" d="M197.1,279.1l0.3,0.1c0-3.3,0-6.6,0-9.8l-0.3-0.2C197,272.5,197.1,275.8,197.1,279.1z"/>
	<path id="XMLID_216_" class="st116" d="M197.3,289.1l0.3,0.2c0-1.6,0-3.3,0-4.9l-0.2-0.2C197.3,285.8,197.3,287.5,197.3,289.1z"/>
	<path id="XMLID_217_" class="st117" d="M197.3,284.2l0.2,0.2c0-1.6,0-3.3,0-4.9l-0.3-0.2C197.3,280.9,197.3,282.5,197.3,284.2z"/>
	<path id="XMLID_218_" class="st87" d="M197.3,279.3l0.3,0.2c0-3.3,0-6.6,0-9.8l-0.3-0.2C197.3,272.7,197.3,276,197.3,279.3z"/>
	<path id="XMLID_219_" class="st39" d="M197,269.3l0.3,0.2c0-3.3,0-6.6,0-9.8l-0.3-0.2C197,262.7,197,266,197,269.3z"/>
	<path id="XMLID_220_" class="st102" d="M197,259.4l0.3,0.2c0-1.6,0-3.3,0-4.9l-0.3-0.2C197,256.1,197,257.8,197,259.4z"/>
	<path id="XMLID_221_" class="st11" d="M197,254.5l0.3,0.2c0-1.6,0-3.3,0-4.9l-0.3-0.2C197,251.2,197,252.8,197,254.5z"/>
	<path id="XMLID_222_" class="st56" d="M197.3,269.4l0.3,0.2c0-3.3,0-6.5,0-9.8l-0.3-0.2C197.3,262.9,197.3,266.1,197.3,269.4z"/>
	<path id="XMLID_223_" class="st101" d="M197.3,259.6l0.3,0.2c0-1.6,0-3.3,0-4.9l-0.3-0.2C197.3,256.3,197.3,258,197.3,259.6z"/>
	<path id="XMLID_224_" class="st118" d="M197.3,254.7l0.3,0.2c0-1.6,0-3.3,0-4.9l-0.3-0.2C197.3,251.4,197.3,253,197.3,254.7z"/>
	<path id="XMLID_225_" class="st8" d="M195.3,248l0.3,0.3c0-1.1,0-2.2,0-3.3l-0.3-0.3C195.3,245.8,195.3,246.9,195.3,248z"/>
	<path id="XMLID_226_" class="st8" d="M195.3,244.7l0.3,0.3c0-1.1,0-2.2,0-3.3l-0.3-0.3C195.3,242.6,195.3,243.7,195.3,244.7z"/>
	<path id="XMLID_227_" class="st8" d="M195.3,241.5l0.3,0.3c0-2.2,0-4.4,0-6.6l-0.3-0.3C195.3,237.1,195.3,239.3,195.3,241.5z"/>
	<path id="XMLID_228_" class="st119" d="M195.6,248.3l0.3,0.3c0-1.1,0-2.2,0-3.3l-0.3-0.3C195.6,246.1,195.6,247.2,195.6,248.3z"/>
	<path id="XMLID_229_" class="st118" d="M195.6,245l0.3,0.3c0-1.1,0-2.2,0-3.3l-0.3-0.3C195.6,242.8,195.6,243.9,195.6,245z"/>
	<path id="XMLID_230_" class="st101" d="M195.6,241.7l0.3,0.3c0-2.2,0-4.4,0-6.6l-0.3-0.3C195.6,237.4,195.6,239.6,195.6,241.7z"/>
	<path id="XMLID_231_" class="st8" d="M195.3,234.9l0.3,0.3c0-2.2,0-4.4,0-6.6l-0.3-0.3C195.3,230.5,195.3,232.7,195.3,234.9z"/>
	<path id="XMLID_232_" class="st8" d="M195.3,228.3l0.3,0.3c0-2.2,0-4.4,0-6.6l-0.3-0.3C195.3,223.9,195.3,226.1,195.3,228.3z"/>
	<path id="XMLID_233_" class="st69" d="M195.6,235.2l0.3,0.3c0-2.2,0-4.4,0-6.6l-0.3-0.3C195.6,230.8,195.6,233,195.6,235.2z"/>
	<path id="XMLID_234_" class="st83" d="M195.6,228.6l0.3,0.3c0-1.1,0-2.2,0-3.3l-0.3-0.3C195.6,226.4,195.6,227.5,195.6,228.6z"/>
	<path id="XMLID_235_" class="st87" d="M195.6,225.3l0.3,0.3c0-1.1,0-2.2,0-3.3l-0.3-0.3C195.6,223.1,195.6,224.2,195.6,225.3z"/>
	<path id="XMLID_236_" class="st59" d="M195.8,248.6l0.3,0.3c0-1.1,0-2.2,0-3.3l-0.3-0.3C195.9,246.4,195.8,247.5,195.8,248.6z"/>
	<path id="XMLID_237_" class="st120" d="M195.9,245.3l0.3,0.3c0-1.1,0-2.2,0-3.3l-0.3-0.3C195.9,243.1,195.9,244.2,195.9,245.3z"/>
	<path id="XMLID_238_" class="st51" d="M195.9,242l0.3,0.3c0-2.2,0-4.4,0-6.6l-0.3-0.3C195.9,237.6,195.9,239.8,195.9,242z"/>
	<path id="XMLID_239_" class="st34" d="M196.1,248.9l0.3,0.3c0-1.1,0-2.2,0-3.3l-0.3-0.3C196.1,246.7,196.1,247.8,196.1,248.9z"/>
	<path id="XMLID_240_" class="st14" d="M196.1,245.6l0.3,0.3c0-1.1,0-2.2,0-3.3l-0.3-0.3C196.1,243.4,196.1,244.5,196.1,245.6z"/>
	<path id="XMLID_241_" class="st121" d="M196.1,242.3l0.3,0.3c0-1.1,0-2.2,0-3.3l-0.3-0.3C196.1,240.1,196.1,241.2,196.1,242.3z"/>
	<path id="XMLID_242_" class="st47" d="M196.1,239l0.3,0.3c0-1.1,0-2.2,0-3.3l-0.3-0.3C196.1,236.8,196.1,237.9,196.1,239z"/>
	<path id="XMLID_243_" class="st101" d="M195.9,235.4l0.3,0.3c0-2.2,0-4.4,0-6.6l-0.3-0.3C195.9,231.1,195.9,233.3,195.9,235.4z"/>
	<path id="XMLID_244_" class="st100" d="M195.9,228.9l0.3,0.3c0-1.1,0-2.2,0-3.3l-0.3-0.3C195.9,226.7,195.9,227.8,195.9,228.9z"/>
	<path id="XMLID_245_" class="st114" d="M195.9,225.6l0.3,0.3c0-1.1,0-2.2,0-3.3l-0.3-0.3C195.9,223.4,195.9,224.5,195.9,225.6z"/>
	<path id="XMLID_246_" class="st48" d="M196.1,235.7l0.3,0.3c0-2.2,0-4.4,0-6.6l-0.3-0.3C196.2,231.3,196.1,233.5,196.1,235.7z"/>
	<path id="XMLID_247_" class="st122" d="M196.2,229.2l0.3,0.3c0-1.1,0-2.2,0-3.3l-0.3-0.3C196.2,227,196.2,228.1,196.2,229.2z"/>
	<path id="XMLID_248_" class="st114" d="M196.2,225.9l0.3,0.3c0-1.1,0-2.2,0-3.3l-0.3-0.3C196.2,223.7,196.2,224.8,196.2,225.9z"/>
	<path id="XMLID_249_" class="st123" d="M196.4,249.2l0.3,0.2c0-1.1,0-2.2,0-3.3l-0.3-0.2C196.4,247,196.4,248.1,196.4,249.2z"/>
	<path id="XMLID_250_" class="st76" d="M196.4,245.9l0.3,0.2c0-1.1,0-2.2,0-3.3l-0.3-0.2C196.4,243.7,196.4,244.8,196.4,245.9z"/>
	<path id="XMLID_251_" class="st106" d="M196.4,242.6l0.3,0.2c0-1.1,0-2.2,0-3.3l-0.3-0.2C196.4,240.4,196.4,241.5,196.4,242.6z"/>
	<path id="XMLID_252_" class="st104" d="M196.4,239.3l0.3,0.2c0-1.1,0-2.2,0-3.3l-0.3-0.2C196.4,237.1,196.4,238.2,196.4,239.3z"/>
	<path id="XMLID_253_" class="st34" d="M196.7,249.3l0.3,0.2c0-1.1,0-2.2,0-3.3l-0.3-0.2C196.7,247.2,196.7,248.3,196.7,249.3z"/>
	<path id="XMLID_254_" class="st14" d="M196.7,246.1l0.3,0.2c0-1.1,0-2.2,0-3.3l-0.3-0.2C196.7,243.9,196.7,245,196.7,246.1z"/>
	<path id="XMLID_255_" class="st121" d="M196.7,242.8l0.3,0.2c0-2.2,0-4.4,0-6.6l-0.3-0.2C196.7,238.4,196.7,240.6,196.7,242.8z"/>
	<path id="XMLID_256_" class="st39" d="M196.4,236l0.3,0.2c0-2.2,0-4.4,0-6.6l-0.3-0.2C196.4,231.6,196.4,233.8,196.4,236z"/>
	<path id="XMLID_257_" class="st124" d="M196.4,229.4l0.3,0.2c0-1.1,0-2.2,0-3.3l-0.3-0.2C196.4,227.2,196.4,228.3,196.4,229.4z"/>
	<path id="XMLID_258_" class="st90" d="M196.4,226.1l0.3,0.2c0-1.1,0-2.2,0-3.3l-0.3-0.2C196.4,224,196.4,225.1,196.4,226.1z"/>
	<path id="XMLID_259_" class="st48" d="M196.7,236.2l0.3,0.2c0-2.2,0-4.4,0-6.6l-0.3-0.2C196.7,231.8,196.7,234,196.7,236.2z"/>
	<path id="XMLID_260_" class="st122" d="M196.7,229.6l0.3,0.2c0-1.1,0-2.2,0-3.3l-0.3-0.2C196.7,227.4,196.7,228.5,196.7,229.6z"/>
	<path id="XMLID_261_" class="st114" d="M196.7,226.3l0.3,0.2c0-1.1,0-2.2,0-3.3l-0.3-0.2C196.7,224.2,196.7,225.2,196.7,226.3z"/>
	<path id="XMLID_262_" class="st59" d="M197,249.5l0.3,0.2c0-1.1,0-2.2,0-3.3l-0.3-0.2C197,247.4,197,248.4,197,249.5z"/>
	<path id="XMLID_263_" class="st120" d="M197,246.3l0.3,0.2c0-1.1,0-2.2,0-3.3L197,243C197,244.1,197,245.2,197,246.3z"/>
	<path id="XMLID_264_" class="st51" d="M197,243l0.3,0.2c0-2.2,0-4.4,0-6.6l-0.3-0.2C197,238.6,197,240.8,197,243z"/>
	<path id="XMLID_265_" class="st119" d="M197.4,249.7l0.3,0.2c0-1.1,0-2.2,0-3.3l-0.3-0.2C197.4,247.5,197.4,248.6,197.4,249.7z"/>
	<path id="XMLID_266_" class="st118" d="M197.4,246.5l0.3,0.2c0-1.1,0-2.2,0-3.3l-0.3-0.2C197.4,244.3,197.4,245.4,197.4,246.5z"/>
	<path id="XMLID_267_" class="st101" d="M197.4,243.2l0.3,0.2c0-2.2,0-4.4,0-6.6l-0.3-0.2C197.4,238.8,197.4,241,197.4,243.2z"/>
	<path id="XMLID_268_" class="st101" d="M197,236.4l0.3,0.2c0-2.2,0-4.4,0-6.6l-0.3-0.2C197,232,197,234.2,197,236.4z"/>
	<path id="XMLID_269_" class="st100" d="M197,229.8l0.3,0.2c0-1.1,0-2.2,0-3.3l-0.3-0.2C197,227.6,197,228.7,197,229.8z"/>
	<path id="XMLID_270_" class="st114" d="M197,226.5l0.3,0.2c0-1.1,0-2.2,0-3.3l-0.3-0.2C197,224.3,197,225.4,197,226.5z"/>
	<path id="XMLID_271_" class="st69" d="M197.4,236.6l0.3,0.2c0-2.2,0-4.4,0-6.6l-0.3-0.2C197.4,232.2,197.4,234.4,197.4,236.6z"/>
	<path id="XMLID_272_" class="st83" d="M197.4,230l0.3,0.2c0-2.2,0-4.4,0-6.6l-0.3-0.2C197.4,225.6,197.4,227.8,197.4,230z"/>
	<path id="XMLID_273_" class="st8" d="M195.3,221.7l0.6,0.6c0-0.5,0-1,0.1-1.4l-0.6-0.5C195.3,220.8,195.3,221.3,195.3,221.7z"/>
	<polygon id="XMLID_274_" class="st125" points="195.3,220.3 196,220.9 196,220.1 195.4,219.6 	"/>
	<polygon id="XMLID_275_" class="st126" points="195.4,219.6 196,220.1 196,219.4 195.4,218.9 	"/>
	<path id="XMLID_276_" class="st92" d="M195.9,222.3l0.6,0.6c0-0.5,0.1-1,0.1-1.5l-0.6-0.5C195.9,221.3,195.9,221.8,195.9,222.3z"/>
	<path id="XMLID_277_" class="st127" d="M196,220.9l0.6,0.5c0.1-0.5,0.1-1,0.1-1.5l-0.6-0.5C196,219.9,196,220.4,196,220.9z"/>
	<path id="XMLID_278_" class="st128" d="M196.4,222.9l0.6,0.4c0-0.5,0.1-0.9,0.1-1.4l-0.6-0.5C196.5,221.9,196.4,222.4,196.4,222.9z
		"/>
	<path id="XMLID_279_" class="st129" d="M196.5,221.4l0.6,0.5c0.1-0.5,0.1-0.9,0.1-1.4l-0.6-0.5
		C196.7,220.4,196.6,220.9,196.5,221.4z"/>
	<path id="XMLID_280_" class="st92" d="M197,223.3l0.6,0.4c0-0.5,0-1,0-1.4l-0.5-0.4C197.1,222.3,197,222.8,197,223.3z"/>
	<polygon id="XMLID_281_" class="st127" points="197.2,221.9 197.6,222.2 197.6,221.5 197.2,221.2 	"/>
	<polygon id="XMLID_282_" class="st130" points="197.2,221.2 197.6,221.5 197.7,220.8 197.3,220.5 	"/>
	
		<linearGradient id="SVGID_8_" gradientUnits="userSpaceOnUse" x1="-7.7002" y1="4.625" x2="-4.2631" y2="4.625" gradientTransform="matrix(0.3734 3.7378 -3.734 0.3738 241.675 235.7449)">
		<stop  offset="0" style="stop-color:#66676A"/>
		<stop  offset="0.5" style="stop-color:#BCBEC0"/>
		<stop  offset="1" style="stop-color:#BABCBF"/>
	</linearGradient>
	<polyline class="st131" points="222.8,220.6 223,220.2 223,209 222.8,208.6 221.1,210.4 221.1,218.9 222.8,220.6 	"/>
	
		<linearGradient id="SVGID_9_" gradientUnits="userSpaceOnUse" x1="-10.7114" y1="27.4642" x2="-7.2743" y2="27.4642" gradientTransform="matrix(0 2.3926 -2.3902 0 223.7052 235.2093)">
		<stop  offset="0" style="stop-color:#626366"/>
		<stop  offset="1" style="stop-color:#9FA1A4"/>
	</linearGradient>
	<polyline class="st132" points="157.1,220.2 157.3,220.6 159,218.9 159,210.3 157.3,208.6 157.1,209 157.1,210.3 157.1,220.2 
		157.1,220.2 	"/>
	
		<linearGradient id="SVGID_10_" gradientUnits="userSpaceOnUse" x1="19.6492" y1="-33.225" x2="23.0863" y2="-33.225" gradientTransform="matrix(0 -1.2764 1.2751 0 232.4172 235.4355)">
		<stop  offset="0" style="stop-color:#737477"/>
		<stop  offset="0.503" style="stop-color:#EDEEEF"/>
		<stop  offset="0.503" style="stop-color:#EDEEEF"/>
		<stop  offset="1" style="stop-color:#939598"/>
	</linearGradient>
	<polyline class="st133" points="222.4,208.5 221.2,208.5 157.7,208.5 157.3,208.6 159,210.3 221.1,210.4 222.8,208.6 222.4,208.5 	
		"/>
	
		<linearGradient id="SVGID_11_" gradientUnits="userSpaceOnUse" x1="0.8207" y1="1.7624" x2="4.2579" y2="1.7624" gradientTransform="matrix(-19.2587 5.213 -5.2078 -19.2788 239.8219 233.2728)">
		<stop  offset="0" style="stop-color:#E4E5E6"/>
		<stop  offset="1" style="stop-color:#C7C9CB"/>
	</linearGradient>
	<polyline class="st134" points="158.8,210.2 221.3,210.2 221,210.4 159.1,210.4 158.8,210.2 	"/>
	
		<linearGradient id="SVGID_12_" gradientUnits="userSpaceOnUse" x1="7.6364" y1="0.976" x2="11.0735" y2="0.976" gradientTransform="matrix(-6.4928 -1.5491 1.5476 -6.4992 229.5175 239.3878)">
		<stop  offset="0" style="stop-color:#646668"/>
		<stop  offset="0.9112" style="stop-color:#EFF0F0"/>
		<stop  offset="1" style="stop-color:#8F9194"/>
	</linearGradient>
	<polyline class="st135" points="184.6,218.8 159.1,218.8 158.8,219 184.7,218.9 184.8,218.8 184.6,218.8 	"/>
	<polygon id="XMLID_283_" class="st136" points="159.1,210.4 159.1,210.6 159.1,210.5 159.1,210.4 	"/>
	<polygon id="XMLID_284_" class="st137" points="159.1,210.4 159.1,210.5 159.1,210.5 159.1,210.4 	"/>
	<polygon id="XMLID_285_" class="st138" points="159.1,210.4 159.1,210.5 159,210.5 159,210.4 	"/>
	<polygon id="XMLID_286_" class="st139" points="159,210.4 159,210.5 159,210.5 159,210.4 	"/>
	<polygon id="XMLID_287_" class="st140" points="159.1,210.6 159.1,210.7 159.1,210.7 159.1,210.5 	"/>
	<polygon id="XMLID_288_" class="st141" points="159.1,210.5 159.1,210.7 159.1,210.7 159.1,210.5 	"/>
	<polygon id="XMLID_289_" class="st112" points="159.1,210.5 159.1,210.7 159,210.6 159,210.5 	"/>
	<polygon id="XMLID_290_" class="st27" points="159,210.5 159,210.6 159,210.6 159,210.5 	"/>
	<polygon id="XMLID_291_" class="st72" points="159,210.4 159,210.6 159,210.6 159,210.4 	"/>
	<polygon id="XMLID_292_" class="st119" points="159,210.4 159,210.6 159,210.6 159,210.3 	"/>
	<polygon id="XMLID_293_" class="st142" points="159,210.3 159,210.6 159,210.6 159,210.3 	"/>
	<polygon id="XMLID_294_" class="st115" points="159,210.3 159,210.6 158.9,210.6 158.9,210.3 	"/>
	<polygon id="XMLID_295_" class="st68" points="158.9,210.3 158.9,210.2 158.9,210.5 158.9,210.6 	"/>
	<polygon id="XMLID_296_" class="st143" points="159.1,210.7 159.1,211.4 159.1,211.4 159.1,210.7 	"/>
	<polygon id="XMLID_297_" class="st144" points="159.1,210.7 159.1,210.7 159.1,211 159.1,211 	"/>
	<polygon id="XMLID_298_" class="st141" points="159.1,211 159.1,211 159.1,211.5 159.1,211.4 	"/>
	<polygon id="XMLID_299_" class="st143" points="159.1,211.4 159.1,211.5 159.1,212.3 159.1,212.1 	"/>
	<polygon id="XMLID_300_" class="st145" points="159.1,210.7 159,210.6 159,211 159.1,211 	"/>
	<polygon id="XMLID_301_" class="st146" points="159.1,211 159,211 159,211.5 159.1,211.5 	"/>
	<polygon id="XMLID_302_" class="st59" points="159,210.6 159,210.6 159,211.1 159,211 	"/>
	<polygon id="XMLID_303_" class="st105" points="159,211 159,211.1 159,211.6 159,211.5 	"/>
	<path id="XMLID_304_" class="st35" d="M159.1,211.5l0,0.1c0,0.4,0,0.8,0,1.2l0-0.4L159.1,211.5z"/>
	<polygon id="XMLID_305_" class="st147" points="159.1,212.1 159.1,212.3 159.1,213.2 159.1,212.9 	"/>
	<polygon id="XMLID_306_" class="st140" points="159.1,212.9 159.1,213.2 159.1,213.6 159.1,213.2 	"/>
	<polygon id="XMLID_307_" class="st140" points="159.1,213.2 159.1,213.6 159.1,214 159.1,213.6 	"/>
	<path id="XMLID_308_" class="st148" d="M159.1,212.3l0,0.4c0,0.4,0,0.8,0,1.2l0-0.8L159.1,212.3z"/>
	<path id="XMLID_309_" class="st149" d="M159.1,213.2l0,0.8l0,0.5c0-0.3,0-0.6,0-0.9L159.1,213.2z"/>
	<path id="XMLID_310_" class="st147" d="M159.1,213.6c0,0.2,0,0.6,0,0.9v0.4c0-0.3,0-0.7,0-0.9V213.6z"/>
	<polygon id="XMLID_311_" class="st30" points="159,210.6 159,210.6 159,211.1 159,211.1 	"/>
	<polygon id="XMLID_312_" class="st150" points="159,211.1 159,211.1 159,211.6 159,211.6 	"/>
	<polygon id="XMLID_313_" class="st24" points="159,210.6 159,210.6 159,211.1 159,211.1 	"/>
	<polygon id="XMLID_314_" class="st151" points="159,211.1 159,211.1 159,211.7 159,211.6 	"/>
	<polygon id="XMLID_315_" class="st11" points="159,211.6 159,211.7 159,212.4 159,212.2 	"/>
	<polygon id="XMLID_316_" class="st80" points="159,212.2 159,212.4 159,213.2 159,212.8 	"/>
	<polygon id="XMLID_317_" class="st142" points="159,210.6 159,210.6 159,211.1 159,211.1 	"/>
	<polygon id="XMLID_318_" class="st25" points="159,211.1 159,211.1 159,211.7 159,211.7 	"/>
	<polygon id="XMLID_319_" class="st115" points="159,210.6 158.9,210.6 159,211.1 159,211.1 	"/>
	<polygon id="XMLID_320_" class="st66" points="159,211.1 159,211.1 159,211.7 159,211.7 	"/>
	<polygon id="XMLID_321_" class="st10" points="159,211.7 159,211.7 159,212.6 159,212.4 	"/>
	<polygon id="XMLID_322_" class="st11" points="159,212.4 159,212.6 159,213.4 159,213.2 	"/>
	<polygon id="XMLID_323_" class="st152" points="159,212.8 159,213.2 159,214 159,213.4 	"/>
	<polygon id="XMLID_324_" class="st153" points="159,213.4 159,214 159,214.8 159,214 	"/>
	<path id="XMLID_325_" class="st154" d="M159,214l0,0.8l0,0.6c0-0.2,0-0.6,0-0.9L159,214z"/>
	<path id="XMLID_326_" class="st147" d="M159,214.5c0,0.3,0,0.6,0,0.9l0,0.5c0-0.3,0-0.6,0-0.9V214.5z"/>
	<polygon id="XMLID_327_" class="st62" points="159,213.2 159,213.4 159,214.3 159,214 	"/>
	<polygon id="XMLID_328_" class="st155" points="159,214 159,214.3 159,215.1 159,214.8 	"/>
	<polygon id="XMLID_329_" class="st156" points="159,214.8 159,215.1 159,215.8 159,215.4 	"/>
	<polygon id="XMLID_330_" class="st143" points="159,215.4 159,215.8 159,216.3 159,215.9 	"/>
	<polygon id="XMLID_331_" class="st68" points="158.9,210.6 158.9,210.5 158.9,211 159,211.1 	"/>
	<polygon id="XMLID_332_" class="st81" points="159,211.1 158.9,211 158.9,211.7 159,211.7 	"/>
	<polygon id="XMLID_333_" class="st49" points="159,211.7 158.9,211.7 158.9,212.4 159,212.6 	"/>
	<polygon id="XMLID_334_" class="st78" points="159,212.6 158.9,212.4 158.9,213.2 159,213.4 	"/>
	<polygon id="XMLID_335_" class="st68" points="158.9,210.5 158.9,210.5 158.9,211 158.9,211 	"/>
	<polygon id="XMLID_336_" class="st81" points="158.9,211 158.9,211 158.9,211.5 158.9,211.7 	"/>
	<polygon id="XMLID_337_" class="st157" points="158.9,211.7 158.9,211.5 158.9,212.1 158.9,212.4 	"/>
	<polygon id="XMLID_338_" class="st47" points="158.9,212.4 158.9,212.1 158.9,212.7 158.9,213.2 	"/>
	<polygon id="XMLID_339_" class="st158" points="159,213.4 158.9,213.2 159,214 159,214.3 	"/>
	<polygon id="XMLID_340_" class="st44" points="159,214.3 159,214 159,214.8 159,215.1 	"/>
	<polygon id="XMLID_341_" class="st159" points="159,215.1 159,214.8 159,215.4 159,215.8 	"/>
	<polygon id="XMLID_342_" class="st143" points="159,215.8 159,215.4 159,215.9 159,216.3 	"/>
	<polygon id="XMLID_343_" class="st74" points="158.9,213.2 158.9,212.7 158.9,213.4 159,214 	"/>
	<polygon id="XMLID_344_" class="st16" points="159,214 158.9,213.4 158.9,214 159,214.8 	"/>
	<path id="XMLID_345_" class="st160" d="M159,214.8l0-0.8l0,0.5c0,0.3,0,0.7,0,0.9L159,214.8z"/>
	<path id="XMLID_346_" class="st149" d="M159,215.4c0-0.2,0-0.6,0-0.9l0,0.4c0,0.3,0,0.7,0,0.9V215.4z"/>
	<polygon id="XMLID_347_" class="st68" points="158.9,210.5 158.9,210.5 158.9,210.9 158.9,211 	"/>
	<polygon id="XMLID_348_" class="st96" points="158.9,211 158.9,210.9 158.9,211.3 158.9,211.5 	"/>
	<path id="XMLID_349_" class="st118" d="M158.9,211.5l0-0.2l0,0.9l0,0.5C158.9,212.3,158.9,211.9,158.9,211.5z"/>
	<polygon id="XMLID_350_" class="st68" points="158.9,210.5 158.9,210.5 158.9,210.9 158.9,210.9 	"/>
	<polygon id="XMLID_351_" class="st9" points="158.9,210.9 158.9,210.9 158.9,211.2 158.9,211.3 	"/>
	<polygon id="XMLID_352_" class="st101" points="158.9,211.3 158.9,211.2 158.9,212 158.9,212.2 	"/>
	<path id="XMLID_353_" class="st113" d="M158.9,212.7l0-0.5l0,0.9l0,0.8C158.9,213.6,158.9,213.1,158.9,212.7z"/>
	<path id="XMLID_354_" class="st33" d="M158.9,214l0-0.8v0.4c0,0.2,0,0.6,0,0.9L158.9,214z"/>
	<path id="XMLID_355_" class="st161" d="M158.9,214.5c0-0.3,0-0.7,0-0.9v0.4c0,0.3,0,0.6,0,0.9L158.9,214.5z"/>
	<polygon id="XMLID_356_" class="st162" points="158.9,212.2 158.9,212 158.9,212.8 158.9,213.1 	"/>
	<polygon id="XMLID_357_" class="st14" points="158.9,213.1 158.9,212.8 158.9,213.2 158.9,213.6 	"/>
	<polygon id="XMLID_358_" class="st138" points="158.9,213.6 158.9,213.2 158.9,213.5 158.9,214 	"/>
	<path id="XMLID_359_" class="st163" d="M159.1,213.6c0,0,0,0.7,0,1.3c0,0.4,0,0.8,0,1.1c0-0.6,0-1.2,0-1.2
		C159.1,214.5,159.1,214,159.1,213.6z"/>
	<path id="XMLID_360_" class="st164" d="M159.1,214.9c0,0,0,0.6,0,1.2c0,0.3,0,0.6,0,0.9c0-0.4,0-0.7,0.1-0.7
		C159.1,215.8,159.1,215.3,159.1,214.9z"/>
	<path id="XMLID_361_" class="st165" d="M159.1,216.2c0,0.9,0,1.7,0,2.6l0,0c0-0.9,0-1.6,0-2.4L159.1,216.2z"/>
	<path id="XMLID_362_" class="st166" d="M159.1,216.4c0,0.8,0,1.5,0,2.4l0,0c0-0.9,0-1.4,0-2L159.1,216.4z"/>
	<path id="XMLID_363_" class="st167" d="M159,215c0,0.7,0,1.4,0,1.3c0,0.4,0,0.7,0,0.9c0,0,0-0.6,0.1-1.2
		C159,215.7,159,215.4,159,215z"/>
	<path id="XMLID_364_" class="st164" d="M159,216.1c0,0.6,0,1.2-0.1,1.2l0,0.4c0,0,0-0.4,0.1-0.7C159,216.6,159,216.4,159,216.1z"/>
	<path id="XMLID_365_" class="st168" d="M159,216.9c0,0.5,0,1.1,0,2l0,0c0-0.9,0-1.2,0-1.5L159,216.9z"/>
	<polygon id="XMLID_366_" class="st168" points="159,217.4 159,217.6 159,218 159,217.9 	"/>
	<path id="XMLID_367_" class="st154" d="M159,217.9L159,217.9c0,0.3,0,0.6,0,1l0,0C159,218.5,159,218.2,159,217.9z"/>
	<path id="XMLID_368_" class="st136" d="M159,216.3l0-0.4c0,0.4,0,0.8,0,1l0,0.4C159,217,159,216.7,159,216.3z"/>
	<polygon id="XMLID_369_" class="st165" points="159,217.2 159,216.9 158.9,217.4 159,217.6 	"/>
	<path id="XMLID_370_" class="st143" d="M159,215.9c0-0.3,0-0.6,0-0.9c0,0.5,0,0.8,0,1.1l0,0.8C159,216.6,159,216.3,159,215.9z"/>
	<path id="XMLID_371_" class="st143" d="M159,216.9l0-0.8C158.9,216.4,158.9,216.7,159,216.9l0,0.6L159,216.9z"/>
	<polygon id="XMLID_372_" class="st169" points="159,217.6 158.9,217.4 158.9,218 159,218 	"/>
	<path id="XMLID_373_" class="st154" d="M159,218L159,218c0,0.2,0,0.5,0,0.9l0,0C158.9,218.5,159,218.2,159,218z"/>
	<path id="XMLID_374_" class="st170" d="M158.9,217.4l0-0.5c0,0.3,0,0.6,0,0.9l0,0.1L158.9,217.4z"/>
	<path id="XMLID_375_" class="st171" d="M158.9,218l0-0.1c0,0.3,0,0.7,0,1.1l0,0C158.9,218.5,158.9,218.2,158.9,218z"/>
	<path id="XMLID_376_" class="st172" d="M158.9,214.9c0-0.3,0-0.7,0-0.9c0,0.5,0,0.9,0,1.3l0,0.8
		C158.9,215.7,158.9,215.4,158.9,214.9z"/>
	<path id="XMLID_377_" class="st173" d="M158.9,216.1l0-0.8c0,0.4,0,0.8,0,1.2l0,0.5C158.9,216.7,158.9,216.4,158.9,216.1z"/>
	<path id="XMLID_378_" class="st152" d="M158.9,214l0-0.4c0,0.5,0,0.9,0,1.4l0,0.4C158.9,214.9,158.9,214.4,158.9,214z"/>
	<path id="XMLID_379_" class="st155" d="M158.9,215.3l0-0.4c0,0.5,0,0.9,0,1.4l0,0.2C158.9,216.1,158.9,215.7,158.9,215.3z"/>
	<path id="XMLID_380_" class="st159" d="M158.9,217l0-0.5c0,0.4,0,0.8,0,1.2l0,0.1C158.9,217.5,158.9,217.2,158.9,217z"/>
	<path id="XMLID_381_" class="st174" d="M158.9,217.8l0-0.1c0,0.4,0,0.8,0,1.3l0,0C158.9,218.5,158.9,218.2,158.9,217.8z"/>
	<path id="XMLID_382_" class="st144" d="M158.9,216.5l0-0.2c0,0.5,0,0.9,0,1.4l0,0.1C158.9,217.3,158.9,216.9,158.9,216.5z"/>
	<path id="XMLID_383_" class="st137" d="M158.9,217.7L158.9,217.7c0,0.4,0,0.9,0,1.3l0,0C158.9,218.6,158.9,218.1,158.9,217.7z"/>
	
		<linearGradient id="SVGID_13_" gradientUnits="userSpaceOnUse" x1="-8.084860e-002" y1="3.3893" x2="3.3563" y2="3.3893" gradientTransform="matrix(-0.7523 13.5713 -13.5575 -0.7531 231.3896 244.638)">
		<stop  offset="0" style="stop-color:#FFFFFF"/>
		<stop  offset="1" style="stop-color:#E7E8E8"/>
	</linearGradient>
	<polyline class="st175" points="184.8,218.8 184.7,218.9 184.7,288.1 184.9,287.9 184.9,219 184.8,218.8 	"/>
	
		<linearGradient id="SVGID_14_" gradientUnits="userSpaceOnUse" x1="-0.3996" y1="-2.8777" x2="3.0376" y2="-2.8777" gradientTransform="matrix(0.752 13.5637 13.5512 -0.7527 233.9618 244.2586)">
		<stop  offset="0" style="stop-color:#FFFFFF"/>
		<stop  offset="1" style="stop-color:#ADB0B2"/>
	</linearGradient>
	<polyline class="st176" points="195.6,219 195.3,288.1 195.1,287.9 195.3,219.1 195.4,218.9 195.6,219 	"/>
	
		<linearGradient id="SVGID_15_" gradientUnits="userSpaceOnUse" x1="-53.3436" y1="-49.7946" x2="-49.906" y2="-49.7946" gradientTransform="matrix(0.1405 -0.7051 0.7044 0.1407 232.3336 258.7039)">
		<stop  offset="0" style="stop-color:#D4D5D7"/>
		<stop  offset="1" style="stop-color:#515153"/>
	</linearGradient>
	<polyline class="st177" points="195.3,288.1 184.7,288.1 184.9,287.9 195.1,287.9 195.3,288.1 	"/>
	
		<linearGradient id="SVGID_16_" gradientUnits="userSpaceOnUse" x1="-12.451" y1="14.2503" x2="-9.0139" y2="14.2503" gradientTransform="matrix(5.180000e-002 2.0399 -2.0379 5.180000e-002 237.9302 235.887)">
		<stop  offset="0" style="stop-color:#FFFFFF"/>
		<stop  offset="0.9941" style="stop-color:#D8D9DB"/>
		<stop  offset="1" style="stop-color:#D8D9DB"/>
	</linearGradient>
	<polyline class="st178" points="221.3,210.2 221,210.4 221,218.8 221,218.8 195.7,218.8 195.4,218.9 195.6,219 221.2,219 
		221.3,210.2 	"/>
	
		<linearGradient id="SVGID_17_" gradientUnits="userSpaceOnUse" x1="-1.9272" y1="-0.335" x2="1.51" y2="-0.335" gradientTransform="matrix(3.9436 -19.7863 19.7663 3.9476 244.5185 260.2821)">
		<stop  offset="0" style="stop-color:#231F20"/>
		<stop  offset="0.2722" style="stop-color:#49494B"/>
		<stop  offset="0.4793" style="stop-color:#D4D5D7"/>
		<stop  offset="1" style="stop-color:#515153"/>
	</linearGradient>
	<path class="st179" d="M264.7,271.7l-2.1,1.1c-3.2,11.2-13.1,17-24.7,17c-17.4,0-27.1-12.1-27.1-29.2c0-15.8,10.3-29.3,26.8-29.3
		c17,0,27.6,15,26.3,31.1l1.8,1.3l0.2-0.4l0.1-0.6c1.5-17.3-10.2-33.3-28.4-33.3c-17.5,0-28.9,14.4-28.9,31.1
		c0,18.1,10.8,31,29.3,31c12.6,0,23.7-6.9,26.9-19.2V272h0L264.7,271.7"/>
	
		<linearGradient id="SVGID_18_" gradientUnits="userSpaceOnUse" x1="28.0078" y1="11.565" x2="31.445" y2="11.565" gradientTransform="matrix(0 0.4141 -0.4137 0 247.9773 250.7649)">
		<stop  offset="0" style="stop-color:#F2F2F3"/>
		<stop  offset="0.4911" style="stop-color:#808285"/>
		<stop  offset="1" style="stop-color:#231F20"/>
	</linearGradient>
	<polyline class="st180" points="263.9,262.4 220.9,262.4 220.7,262.5 222.1,263.8 265.4,263.8 265.7,263.7 263.9,262.4 	"/>
	
		<linearGradient id="SVGID_19_" gradientUnits="userSpaceOnUse" x1="0.5694" y1="5.2843" x2="4.0068" y2="5.2843" gradientTransform="matrix(3.5662 0 0 3.5697 250.3979 253.2332)">
		<stop  offset="0" style="stop-color:#D2D3D5"/>
		<stop  offset="1" style="stop-color:#2E2C2D"/>
	</linearGradient>
	<polyline class="st181" points="264.3,271.5 263,271.5 252.8,271.5 252.4,271.6 253.4,272.7 262.6,272.7 264.7,271.7 264.3,271.5 	
		"/>
	
		<linearGradient id="SVGID_20_" gradientUnits="userSpaceOnUse" x1="3.245770e-003" y1="-0.1864" x2="3.4404" y2="-0.1864" gradientTransform="matrix(-7.9221 -0.3074 0.3071 -7.9301 250.7448 246.6148)">
		<stop  offset="0" style="stop-color:#6D6E70"/>
		<stop  offset="0.5799" style="stop-color:#C7C9CB"/>
		<stop  offset="1" style="stop-color:#58595B"/>
	</linearGradient>
	<path class="st182" d="M253.8,256.5l0.2-0.2c-0.1-11.3-7-18.2-16.3-18.2c-9.3,0-16.6,6.6-17.1,17.4l0,0.1l0,0.5l0.2,0.4l1.4-1.2
		c0.3-8.8,6.5-15.6,15.5-15.6c8.8,0,14.4,7.4,14.8,15.6L253.8,256.5"/>
	
		<linearGradient id="SVGID_21_" gradientUnits="userSpaceOnUse" x1="-12.9875" y1="-15.5158" x2="-9.5507" y2="-15.5158" gradientTransform="matrix(-1.020000e-002 -0.5846 0.584 -1.020000e-002 246.2072 249.2286)">
		<stop  offset="0" style="stop-color:#312F30"/>
		<stop  offset="0.7574" style="stop-color:#D4D5D7"/>
		<stop  offset="1" style="stop-color:#D4D5D7"/>
	</linearGradient>
	<polyline class="st183" points="253.5,256.6 253.8,256.5 252.4,255.3 222.1,255.3 220.7,256.4 221.1,256.6 222,256.6 222.4,256.6 
		222.4,256.6 253.5,256.6 	"/>
	<polyline id="XMLID_384_" class="st136" points="253.6,256.5 221.2,256.5 220.7,256.4 220.7,256.4 221.1,256.7 253.5,256.7 
		253.8,256.5 253.8,256.5 253.6,256.5 	"/>
	
		<linearGradient id="SVGID_22_" gradientUnits="userSpaceOnUse" x1="-3.7162" y1="158.6408" x2="-0.2793" y2="158.6408" gradientTransform="matrix(0 -0.5913 0.5907 0 288.6701 246.6274)">
		<stop  offset="0" style="stop-color:#515153"/>
		<stop  offset="1" style="stop-color:#EDEEEF"/>
	</linearGradient>
	<polyline class="st184" points="388.7,248.9 387,247.1 377.7,247.1 376,248.8 376.4,249 388.4,249 388.7,248.9 	"/>
	
		<linearGradient id="SVGID_23_" gradientUnits="userSpaceOnUse" x1="94.7093" y1="20.6205" x2="98.1464" y2="20.6205" gradientTransform="matrix(1.351 0 0 1.3524 302.5804 257.7281)">
		<stop  offset="0" style="stop-color:#939598"/>
		<stop  offset="1" style="stop-color:#404041"/>
	</linearGradient>
	<polyline class="st185" points="432.4,290 432.5,289.7 432.5,289.4 432.5,281.7 432.2,281.3 430.6,282.9 430.6,288.2 432.4,290 	
		"/>
	
		<linearGradient id="SVGID_24_" gradientUnits="userSpaceOnUse" x1="-7.4453" y1="1.8096" x2="-4.0081" y2="1.8096" gradientTransform="matrix(-16.2362 -5.4585 5.453 -16.2525 304.288 250.6185)">
		<stop  offset="0" style="stop-color:#231F20"/>
		<stop  offset="0.4793" style="stop-color:#D4D5D7"/>
		<stop  offset="1" style="stop-color:#3A393B"/>
	</linearGradient>
	<path class="st186" d="M431.9,281.1l-0.2,0c-1,0.1-1.8,0.1-2.4,0.1c-2.4,0-3.1-1.3-3.1-4.5v-30.3c0-12.4-12.1-17.1-23.6-17.1
		c-12.8,0-25.6,4.4-26.7,19.1l0.1,0.3l1.7-1.7c2.1-12.2,13.5-15.9,24.9-15.9c10.8,0,22.1,4.4,22.1,16.1v31.2c0,0-0.4,4.4,3,4.4h2.8
		l1.7-1.6L431.9,281.1"/>
	
		<linearGradient id="SVGID_25_" gradientUnits="userSpaceOnUse" x1="-0.8822" y1="5.8024" x2="2.5549" y2="5.8024" gradientTransform="matrix(3.5164 -17.6425 17.625 3.5199 291.0483 261.0512)">
		<stop  offset="0" style="stop-color:#231F20"/>
		<stop  offset="0.3491" style="stop-color:#646668"/>
		<stop  offset="0.3491" style="stop-color:#646668"/>
		<stop  offset="0.4793" style="stop-color:#49494B"/>
		<stop  offset="0.6805" style="stop-color:#BCBEC0"/>
		<stop  offset="0.929" style="stop-color:#434344"/>
		<stop  offset="1" style="stop-color:#434344"/>
	</linearGradient>
	<path class="st187" d="M414.2,282c-0.8,1-6.2,7.6-19.7,7.6c-9.9,0-18.9-5.4-18.9-16.2c0-13.8,13.1-15,23.4-16.2
		c10.3-1.2,16.9-2.6,16.9-9.7c0-7.1-5.8-9.9-14.1-9.9c-8.1,0-13.9,4.1-14.7,9.4l1.8,1.8l0.2-0.3c0.8-6.1,5.8-8.9,12.9-8.9
		c5.2,0,12.2,1.3,12.2,8c0,7.6-8.3,6.6-17.7,8.3c-10.9,1.3-22.7,3.7-22.7,18.4c0,11.5,9.6,17.2,20.2,17.2c7,0,15.3-2.2,20.4-7.2
		L414.2,282L414.2,282"/>
	<path id="XMLID_385_" class="st5" d="M430.6,288.2c-2.1,0.5-4.8,0.9-6.4,0.9c-5.2,0-8.9-1.9-10-7.1l0-0.1v2.3c1,5.4,4.8,7.2,10,7.2
		c2,0,5.7-0.7,7.8-1.3l0.3-0.3L430.6,288.2"/>
	
		<linearGradient id="SVGID_26_" gradientUnits="userSpaceOnUse" x1="24.3409" y1="5.7908" x2="27.7782" y2="5.7908" gradientTransform="matrix(4.785 0 0 4.7898 297.8294 257.892)">
		<stop  offset="0" style="stop-color:#5A5B5D"/>
		<stop  offset="0.5" style="stop-color:#EFF0F0"/>
		<stop  offset="0.5" style="stop-color:#EFF0F0"/>
		<stop  offset="1" style="stop-color:#BCBEC0"/>
	</linearGradient>
	<path class="st188" d="M430.5,288.1c-2.1,0.5-4.8,1-6.4,0.9c-5.2,0-8.8-1.7-9.9-6.9l0,0l0.1,0.8c1.2,4.8,4.4,6.3,9.9,6.3
		c1.6,0,4.3-0.4,6.4-0.9L430.5,288.1"/>
	
		<radialGradient id="SVGID_27_" cx="14.2695" cy="3.8124" r="3.4371" gradientTransform="matrix(6.9214 0 0 6.9284 290.8873 257.1264)" gradientUnits="userSpaceOnUse">
		<stop  offset="0" style="stop-color:#DCDDDE"/>
		<stop  offset="1" style="stop-color:#484749"/>
	</radialGradient>
	<path class="st189" d="M413.2,270.1c0,8.2-8.9,11.2-14.6,11.2c-4.6,0-12-1.7-12-7.5c0-6.8,5-8.9,10.6-9.8c5.7-1,12-0.9,16-3.5
		V270.1z M414.3,258.3c-4.5,3-10.8,3.4-17.7,4.5c-1.6,0.2-11.4,1.3-11.4,11.2c0,6.6,8.1,8.7,13.3,8.7c6.5,0,16.3-3.2,16.3-12.5
		l-0.1-11.8C414.6,258.1,414.6,258.1,414.3,258.3"/>
	
		<linearGradient id="SVGID_28_" gradientUnits="userSpaceOnUse" x1="-1.6998" y1="1.9363" x2="1.7373" y2="1.9363" gradientTransform="matrix(3.3195 -16.655 16.6388 3.3229 261.5445 260.5497)">
		<stop  offset="0" style="stop-color:#231F20"/>
		<stop  offset="0.2722" style="stop-color:#5E5F61"/>
		<stop  offset="0.4793" style="stop-color:#D4D5D7"/>
		<stop  offset="1" style="stop-color:#343334"/>
	</linearGradient>
	<path class="st190" d="M307.1,240.4c-1.8-0.2-3.8-0.6-5.6-0.6c-8.9,0-16,9.3-16,20.2V288l1.7,1.7l0.2-0.4l0-1.3h0v-26.2
		c0-13,7.1-20.2,16-20.2c1.7,0,3.4,0.3,5.1,0.5l0.3-0.1L307.1,240.4"/>
	
		<linearGradient id="SVGID_29_" gradientUnits="userSpaceOnUse" x1="-0.2941" y1="-2.2039" x2="3.1431" y2="-2.2039" gradientTransform="matrix(5.580000e-002 15.1163 -15.1013 5.590000e-002 262.9117 244.904)">
		<stop  offset="0" style="stop-color:#231F20"/>
		<stop  offset="1" style="stop-color:#FFFFFF"/>
	</linearGradient>
	<path class="st191" d="M285.6,260.1c0-10.9,7.1-20.2,16-20.2c1.8,0,3.8,0.4,5.5,0.6l-0.1-0.1c-1.8-0.2-3.8-0.7-5.6-0.6
		c-9.6,0.2-16.2,9.5-16.2,20.4l0.2,27.8l0.2,0.3L285.6,260.1"/>
	
		<linearGradient id="SVGID_30_" gradientUnits="userSpaceOnUse" x1="1.314" y1="5.596" x2="4.7512" y2="5.596" gradientTransform="matrix(0.8379 -4.2042 4.2 0.8388 259.7579 246.3638)">
		<stop  offset="0" style="stop-color:#231F20"/>
		<stop  offset="0.2722" style="stop-color:#5E5F61"/>
		<stop  offset="0.4793" style="stop-color:#D4D5D7"/>
		<stop  offset="1" style="stop-color:#515153"/>
	</linearGradient>
	<polyline class="st192" points="285.1,244.3 286.7,244.3 286.7,232.8 286.7,232.8 286.7,231.5 286.7,231.5 286.5,231.1 
		284.8,232.8 284.8,243.8 285.1,244.3 	"/>
	<polyline id="XMLID_386_" class="st5" points="328.2,290 328.6,289.8 326.6,288.1 317.6,288.1 315.9,289.8 316.3,290 328.2,290 	
		"/>
	<polyline id="XMLID_389_" class="st5" points="367.3,289.8 365.6,288 356.2,288.1 354.5,289.9 367,289.9 367.3,289.8 	"/>
	
		<linearGradient id="SVGID_31_" gradientUnits="userSpaceOnUse" x1="-4.9322" y1="2.4762" x2="-1.4951" y2="2.4762" gradientTransform="matrix(-12.415 -9.0334 9.0243 -12.4274 284.9336 251.1075)">
		<stop  offset="0" style="stop-color:#3E3D3F"/>
		<stop  offset="0.4793" style="stop-color:#D4D5D7"/>
		<stop  offset="0.4793" style="stop-color:#D4D5D7"/>
		<stop  offset="1" style="stop-color:#3A393B"/>
	</linearGradient>
	<path class="st193" d="M367.5,289.4v-40c0-13.2-8.1-20.1-20.9-20.1c-7.8,0-14.5,4-18.4,10.5l-0.2,0.1c0,0-0.1,2.1-0.1,3.3l0.2-0.2
		c0.2-0.9,0.5-1.2,0.5-1.2c3.5-5.8,11.1-10.1,18.1-10.1c11.5,0,18.8,5.5,18.8,18.7l0.1,37.6l1.7,1.7L367.5,289.4"/>
	
		<linearGradient id="SVGID_32_" gradientUnits="userSpaceOnUse" x1="4.8237" y1="-1.6642" x2="8.2608" y2="-1.6642" gradientTransform="matrix(9.9939 3.7375 -3.7337 10.0039 273.243 246.8448)">
		<stop  offset="0" style="stop-color:#F3F4F4"/>
		<stop  offset="0.4615" style="stop-color:#FFFFFF"/>
		<stop  offset="0.4615" style="stop-color:#FFFFFF"/>
		<stop  offset="1" style="stop-color:#7A7C7F"/>
	</linearGradient>
	<path class="st194" d="M365.7,250.3c0-13.2-7.3-18.7-18.8-18.7c-4,0-8.3,1.4-11.9,3.8c-3.4,2-5.7,4.8-6.7,7
		c1.4-2.2,2.5-4.3,6.7-6.9c3.5-2.1,7.5-3.4,11.4-3.4c11.5,0,18.8,5.5,18.8,18.7l0.2,37.4L365.7,250.3"/>
	
		<linearGradient id="SVGID_33_" gradientUnits="userSpaceOnUse" x1="745.4039" y1="-523.5189" x2="748.8405" y2="-523.5189" gradientTransform="matrix(-2.100000e-003 3.840000e-002 -3.840000e-002 -2.100000e-003 257.8687 258.2856)">
		<stop  offset="0" style="stop-color:#FFFFFF"/>
		<stop  offset="1" style="stop-color:#747678"/>
	</linearGradient>
	<line class="st195" x1="276.3" y1="288.1" x2="276.5" y2="287.9"/>
	
		<linearGradient id="SVGID_34_" gradientUnits="userSpaceOnUse" x1="-9.036104e-002" y1="-2.717" x2="3.3468" y2="-2.717" gradientTransform="matrix(-7.8219 -0.3035 0.3032 -7.8298 249.8938 254.0468)">
		<stop  offset="0" style="stop-color:#6D6E70"/>
		<stop  offset="0.5799" style="stop-color:#FFFFFF"/>
		<stop  offset="1" style="stop-color:#58595B"/>
	</linearGradient>
	<path class="st196" d="M220.8,267c0.6,8.6,6.4,16.4,17.7,16.2c7.5-0.2,12.7-3.6,14.9-10.3c-2,6.2-7.4,10-14.8,10
		c-11.2,0-17.4-7.6-18-16.8L220.8,267"/>
	
		<radialGradient id="SVGID_35_" cx="4.779387e-002" cy="-1.692945e-002" r="3.4372" gradientTransform="matrix(11.8805 0 0 11.8924 250.3047 246.2034)" gradientUnits="userSpaceOnUse">
		<stop  offset="0" style="stop-color:#FFFFFF"/>
		<stop  offset="1" style="stop-color:#58595B"/>
	</radialGradient>
	<path class="st197" d="M264.2,260.6c-0.2-10.3-3.6-18-10.1-23.4c-4.2-3.8-9.9-6.2-16.7-6.2c-6.4,0-11.8,2-15.9,5.4
		c-7,5.3-11.1,14.3-11.1,24.2c0,17.1,9.8,29.2,27.1,29.2c1.2,0,2.4-0.1,3.6-0.2c-1.1,0.1-2.1,0.2-3.2,0.2
		c-17.4,0-27.1-12.1-27.1-29.2c0-11.9,5.8-22.3,15.8-26.8l0.4-0.2l0.5-0.2c3-1.2,6.2-1.8,9.9-1.8c2.5,0,4.8,0.3,7,0.9
		c11.7,3.4,19.3,14.9,19.4,28.1c0,0.6,0,1.2,0,1.8l0.2,0.1c0,0,0.2,0.1,0.2-0.5C264.2,261.4,264.2,261.1,264.2,260.6"/>
	
		<linearGradient id="SVGID_36_" gradientUnits="userSpaceOnUse" x1="-3.3333" y1="2.4064" x2="0.1039" y2="2.4064" gradientTransform="matrix(6.7641 -5.1657 5.1606 6.7709 245.3611 260.5918)">
		<stop  offset="0" style="stop-color:#6D6E70"/>
		<stop  offset="0.5799" style="stop-color:#FFFFFF"/>
		<stop  offset="1" style="stop-color:#58595B"/>
	</linearGradient>
	<path class="st198" d="M237.5,289.7c-1.1,0-2.2-0.1-3.2-0.2c1.2,0.1,2.3,0.2,3.5,0.2c12.8,0,22.4-7.2,24.7-17l0,0
		C258.9,283.1,250.3,289.7,237.5,289.7"/>
	
		<linearGradient id="SVGID_37_" gradientUnits="userSpaceOnUse" x1="-2.7302" y1="0.6391" x2="0.707" y2="0.6391" gradientTransform="matrix(7.1331 -5.4476 5.4421 7.1403 242.9492 254.8192)">
		<stop  offset="0" style="stop-color:#6D6E70"/>
		<stop  offset="0.5799" style="stop-color:#FFFFFF"/>
		<stop  offset="1" style="stop-color:#FFFFFF"/>
	</linearGradient>
	<polyline class="st199" points="263.8,262.4 222.4,262.3 222.4,262.3 221.1,262.3 220.7,262.5 220.8,262.6 264,262.5 263.8,262.4 	
		"/>
	
		<linearGradient id="SVGID_38_" gradientUnits="userSpaceOnUse" x1="7.1432" y1="17.1103" x2="10.5802" y2="17.1103" gradientTransform="matrix(0 -1.2764 1.2751 0 258.7528 241.9855)">
		<stop  offset="0" style="stop-color:#737477"/>
		<stop  offset="0.503" style="stop-color:#EDEEEF"/>
		<stop  offset="0.503" style="stop-color:#EDEEEF"/>
		<stop  offset="1" style="stop-color:#939598"/>
	</linearGradient>
	<polyline class="st200" points="286.1,231 275,231 274.6,231.1 276.4,232.9 284.8,232.8 286.5,231.1 286.1,231 	"/>
	
		<linearGradient id="SVGID_39_" gradientUnits="userSpaceOnUse" x1="0.8134" y1="5.2664" x2="4.2505" y2="5.2664" gradientTransform="matrix(1.1848 -5.9445 5.9385 1.186 263.1636 246.5848)">
		<stop  offset="0" style="stop-color:#231F20"/>
		<stop  offset="0.2722" style="stop-color:#5E5F61"/>
		<stop  offset="0.4793" style="stop-color:#D4D5D7"/>
		<stop  offset="1" style="stop-color:#515153"/>
	</linearGradient>
	<path class="st201" d="M308.5,229.7c-0.9-0.1-1.9-0.3-4.4-0.3c-8,0-15.7,6.7-17.2,13h-0.2v2l0.2-0.1l0.1-0.1
		c1.7-6.2,9.3-12.6,17.1-12.6c1.4,0,2.3,0.1,3,0.1l1.8-1.8L308.5,229.7"/>
	
		<linearGradient id="SVGID_40_" gradientUnits="userSpaceOnUse" x1="-2.8972" y1="-13.045" x2="0.54" y2="-13.045" gradientTransform="matrix(0 3.17 -3.1669 0 266.7503 242.2367)">
		<stop  offset="0" style="stop-color:#BFC1C3"/>
		<stop  offset="1" style="stop-color:#231F20"/>
	</linearGradient>
	<polyline class="st202" points="308.8,242.1 309,241.7 309,231.5 309,231.5 309,230.2 309,230.2 308.9,229.9 307.1,231.6 
		307.1,240.4 308.8,242.1 	"/>
	<polyline id="XMLID_390_" class="st5" points="285.6,288 276.3,288.1 274.6,289.8 275,289.9 286.9,289.9 287.3,289.8 285.6,288 	
		"/>
	
		<linearGradient id="SVGID_41_" gradientUnits="userSpaceOnUse" x1="-0.6505" y1="-1.5199" x2="2.7866" y2="-1.5199" gradientTransform="matrix(0 11.7043 -11.6926 0 257.653 243.438)">
		<stop  offset="0" style="stop-color:#3A393B"/>
		<stop  offset="1" style="stop-color:#C3C5C7"/>
	</linearGradient>
	<polyline class="st203" points="274.5,288.1 274.5,289.4 274.5,289.4 274.6,289.8 276.3,288.1 276.4,232.9 274.6,231.1 
		274.5,231.5 274.5,232.9 274.5,232.9 274.5,288.1 	"/>
	
		<linearGradient id="SVGID_42_" gradientUnits="userSpaceOnUse" x1="0.2358" y1="-1.7772" x2="3.673" y2="-1.7772" gradientTransform="matrix(-0.6004 10.8302 -10.8195 -0.601 257.9115 246.9346)">
		<stop  offset="0" style="stop-color:#FFFFFF"/>
		<stop  offset="1" style="stop-color:#E7E8E8"/>
	</linearGradient>
	<polyline class="st204" points="276.6,287.9 276.6,233 276.4,232.9 276.3,233 276.3,288.1 	"/>
	
		<linearGradient id="SVGID_43_" gradientUnits="userSpaceOnUse" x1="7.5759" y1="-3.7471" x2="11.0136" y2="-3.7471" gradientTransform="matrix(2.4625 0 0 2.465 257.7188 242.2035)">
		<stop  offset="0" style="stop-color:#77787B"/>
		<stop  offset="1" style="stop-color:#FFFFFF"/>
	</linearGradient>
	<polyline class="st205" points="284.8,233.1 276.6,233 276.4,232.9 276.6,232.8 284.8,232.8 284.8,233.1 	"/>
	
		<linearGradient id="SVGID_44_" gradientUnits="userSpaceOnUse" x1="0.264" y1="8.183" x2="3.7012" y2="8.183" gradientTransform="matrix(-0.2094 -3.0731 3.0701 -0.2096 260.0851 245.3879)">
		<stop  offset="0" style="stop-color:#231F20"/>
		<stop  offset="1" style="stop-color:#FFFFFF"/>
	</linearGradient>
	<polyline class="st206" points="284.6,233 284.9,244.2 284.8,232.8 284.6,233 	"/>
	
		<linearGradient id="SVGID_45_" gradientUnits="userSpaceOnUse" x1="1.0895" y1="17.3239" x2="4.5267" y2="17.3239" gradientTransform="matrix(-9.310000e-002 -2.3836 2.3812 -9.320000e-002 266.126 244.1942)">
		<stop  offset="0" style="stop-color:#231F20"/>
		<stop  offset="1" style="stop-color:#FFFFFF"/>
	</linearGradient>
	<polyline class="st207" points="306.9,231.8 307.1,240.3 307.2,240.4 307.1,231.5 306.9,231.8 	"/>
	
		<linearGradient id="SVGID_46_" gradientUnits="userSpaceOnUse" x1="-1.3667" y1="3.7543" x2="2.0704" y2="3.7543" gradientTransform="matrix(3.4538 -17.3288 17.3113 3.4571 275.9217 260.214)">
		<stop  offset="0" style="stop-color:#231F20"/>
		<stop  offset="0.2722" style="stop-color:#5E5F61"/>
		<stop  offset="0.4793" style="stop-color:#D4D5D7"/>
		<stop  offset="1" style="stop-color:#2E2C2D"/>
	</linearGradient>
	<path class="st208" d="M342.9,237.5c-10.7,0-16.3,9-16.3,17.6v32.9l1.9,1.7l0.2-0.4v-34.3c0-8.7,5.6-15.5,14.2-15.5
		c7.6,0,11.3,4,11.5,13.2V290l1.7-1.8v-35.2C356,243.6,352.9,237.5,342.9,237.5"/>
	
		<linearGradient id="SVGID_47_" gradientUnits="userSpaceOnUse" x1="-0.2672" y1="-4.2969" x2="3.1699" y2="-4.2969" gradientTransform="matrix(5.580000e-002 15.1175 -15.1025 5.590000e-002 276.4203 244.4563)">
		<stop  offset="0" style="stop-color:#231F20"/>
		<stop  offset="1" style="stop-color:#FFFFFF"/>
	</linearGradient>
	<path class="st209" d="M342.9,237.5c-10.7,0-16.3,9-16.3,17.6l0,32.8l0.1,0.2l0.3-33C327.1,246.6,332.5,237.8,342.9,237.5
		c9.6,0.2,12.6,6.3,12.8,15.3l0.4,35.2v-35.2C356,243.6,352.9,237.5,342.9,237.5"/>
	
		<linearGradient id="SVGID_48_" gradientUnits="userSpaceOnUse" x1="-39.104" y1="40.1686" x2="-35.6677" y2="40.1686" gradientTransform="matrix(0.1322 -0.6633 0.6626 0.1323 259.3005 257.9895)">
		<stop  offset="0" style="stop-color:#D4D5D7"/>
		<stop  offset="1" style="stop-color:#515153"/>
	</linearGradient>
	<polyline class="st210" points="285.4,287.8 276.6,287.9 276.3,288.1 285.6,288.1 285.4,287.8 	"/>
	
		<linearGradient id="SVGID_49_" gradientUnits="userSpaceOnUse" x1="-31.3553" y1="87.9778" x2="-27.9188" y2="87.9778" gradientTransform="matrix(0.1249 -0.6267 0.6261 0.125 270.7667 258.5811)">
		<stop  offset="0" style="stop-color:#D4D5D7"/>
		<stop  offset="1" style="stop-color:#515153"/>
	</linearGradient>
	<polyline class="st211" points="326.6,288 317.8,287.9 317.5,288.1 326.8,288.2 326.6,288 	"/>
	
		<linearGradient id="SVGID_50_" gradientUnits="userSpaceOnUse" x1="-23.6615" y1="132.7985" x2="-20.2249" y2="132.7985" gradientTransform="matrix(0.1222 -0.6131 0.6125 0.1223 282.2552 258.4967)">
		<stop  offset="0" style="stop-color:#D4D5D7"/>
		<stop  offset="1" style="stop-color:#515153"/>
	</linearGradient>
	<polyline class="st212" points="365.4,288 356.4,288 356.2,288.2 365.6,288.1 365.4,288 	"/>
	
		<linearGradient id="SVGID_51_" gradientUnits="userSpaceOnUse" x1="-8.8577" y1="-8.7082" x2="-5.4205" y2="-8.7082" gradientTransform="matrix(-7.247 5.7774 -5.7716 -7.2543 297.3193 250.6465)">
		<stop  offset="0" style="stop-color:#5A5B5D"/>
		<stop  offset="0.5" style="stop-color:#EFF0F0"/>
		<stop  offset="0.5" style="stop-color:#EFF0F0"/>
		<stop  offset="1" style="stop-color:#BCBEC0"/>
	</linearGradient>
	<path class="st213" d="M398.5,282.4c-5.1,0-13-2.1-13-8.6c0-9.7,9.5-10.7,11.1-11c6.9-1,13.2-1.4,17.7-4.6l0.1,11.9
		C414.4,279.3,404.9,282.4,398.5,282.4z M414.3,258.3c-4.5,3-10.8,3.4-17.7,4.5c-1.6,0.2-11.4,1.3-11.4,11.2c0,6.6,8.1,8.7,13.3,8.7
		c6.5,0,16.3-3.2,16.3-12.5l-0.1-11.8C414.6,258.1,414.6,258.1,414.3,258.3"/>
	
		<linearGradient id="SVGID_52_" gradientUnits="userSpaceOnUse" x1="11.1164" y1="-3.0872" x2="14.5536" y2="-3.0872" gradientTransform="matrix(7.5259 2.8145 -2.8117 7.5335 288.8078 249.2975)">
		<stop  offset="0" style="stop-color:#F3F4F4"/>
		<stop  offset="1" style="stop-color:#9A9C9E"/>
	</linearGradient>
	<path class="st214" d="M375.6,273.5c0-5.6,2.3-9.3,5.6-11.6c-3.5,2.3-6,5.9-6,11.8c0,10.8,9,16.2,18.9,16.2
		c8.1,0,13.2-2.3,16.3-4.5c-3.1,2-8.5,4.3-16.1,4.3C384.4,289.7,375.6,284.3,375.6,273.5z M415.7,247.4c0,2.8-1.3,5.1-3.2,6.5
		c2.3-1.4,3.6-3.4,3.6-6.5c0-7.1-5.8-9.9-14.1-9.9c-4.3,0-7.9,1.1-10.5,3c2.6-1.6,6.2-2.6,10.1-2.6
		C409.9,237.9,415.7,240.3,415.7,247.4"/>
	
		<linearGradient id="SVGID_53_" gradientUnits="userSpaceOnUse" x1="-2.488" y1="-7.8687" x2="0.9492" y2="-7.8687" gradientTransform="matrix(-2.9691 13.6475 -13.6337 -2.9721 297.9558 241.9497)">
		<stop  offset="0" style="stop-color:#F3F4F4"/>
		<stop  offset="0.4615" style="stop-color:#FFFFFF"/>
		<stop  offset="0.4615" style="stop-color:#FFFFFF"/>
		<stop  offset="1" style="stop-color:#2B2829"/>
	</linearGradient>
	<path class="st215" d="M429.2,282.9c0.8,0,1.4,0,1.4,0S429.9,282.9,429.2,282.9z M425.8,282.1c-0.6-0.7-0.8-1.3-0.9-2.5
		c0-0.6-0.1-1.4-0.1-2l0.3-27.6c0-7.4-2.5-12.1-6.9-15.2c-3.5-2.5-7.8-3.7-12.8-3.7c-4.9,0-7.1,0.2-9.6,0.5c-7.9,1-11,3.7-14,6.8
		c4-3.8,9-6.9,23.3-6.9c3.9,0,7.8,1,11,2.7c5.1,2.8,8.5,7.9,8.5,16.7l0.1,27.9l0,0.6c0,0.3,0.1,0.6,0.1,1c0.1,0.7,0.3,1.1,0.7,1.7
		c0.7,0.8,1.4,0.9,1.8,0.9c0.1,0,1,0,1.8,0c-0.7,0-1.5,0-1.9-0.1C426.4,282.8,426.1,282.4,425.8,282.1"/>
	
		<linearGradient id="SVGID_54_" gradientUnits="userSpaceOnUse" x1="13.1915" y1="-49.2957" x2="16.6287" y2="-49.2957" gradientTransform="matrix(0.1934 2.5456 -2.5431 0.1936 303.1253 255.8687)">
		<stop  offset="0" style="stop-color:#5A5B5D"/>
		<stop  offset="0.5" style="stop-color:#EFF0F0"/>
		<stop  offset="0.5" style="stop-color:#EFF0F0"/>
		<stop  offset="1" style="stop-color:#BCBEC0"/>
	</linearGradient>
	<polyline class="st216" points="432.3,281.3 432.3,281.3 430.6,282.9 430.5,288.1 430.7,288.3 430.7,282.9 432.3,281.3 	"/>
	
		<linearGradient id="SVGID_55_" gradientUnits="userSpaceOnUse" x1="-1.0129" y1="-2.3943" x2="2.4242" y2="-2.3943" gradientTransform="matrix(-7.2048 -4.9506 4.9456 -7.212 247.3737 255.4267)">
		<stop  offset="0" style="stop-color:#D2D3D5"/>
		<stop  offset="0.4911" style="stop-color:#808285"/>
		<stop  offset="1" style="stop-color:#231F20"/>
	</linearGradient>
	<path class="st217" d="M252.1,272l-0.1,0.3c-2.4,5.9-6.8,8.9-14,8.9c-10.8,0-15.8-8.2-15.8-17.5l-1.4-1.3l-0.1,0.3
		c0.1,12.7,6,20,17.4,20c8.1,0,13-3.1,15.4-10.1l-1-1.1L252.1,272"/>
	
		<linearGradient id="SVGID_56_" gradientUnits="userSpaceOnUse" x1="-1.2014" y1="-0.1813" x2="2.2358" y2="-0.1813" gradientTransform="matrix(6.9771 -4.4494 4.445 6.9841 246.0321 247.1252)">
		<stop  offset="0" style="stop-color:#FFFFFF"/>
		<stop  offset="1" style="stop-color:#58595B"/>
	</linearGradient>
	<path class="st218" d="M254,256l-0.1-1.3c-0.7-10.4-7.1-16.7-16-16.7c-4.8,0-9.1,1.6-12.2,4.7c-3.1,3-5,7.3-5.3,12.8l0,0.1l0,0.5
		l0.2,0.4l-0.1-0.4l0-0.5l0-0.1c0.3-5.7,2.4-10.1,5.7-13.2c3-2.5,7.1-4,11.4-4c9.2,0,15.7,6.8,16,17.8l0.1,0.2L254,256L254,256"/>
	
		<linearGradient id="SVGID_57_" gradientUnits="userSpaceOnUse" x1="0.2057" y1="9.6046" x2="3.6429" y2="9.6046" gradientTransform="matrix(-0.2393 -3.5116 3.508 -0.2395 263.6034 245.1835)">
		<stop  offset="0" style="stop-color:#231F20"/>
		<stop  offset="1" style="stop-color:#FFFFFF"/>
	</linearGradient>
	<path class="st219" d="M307.1,231.5c-0.7-0.1-1.6-0.1-3-0.1c-7.8,0-15.4,6.5-17.1,12.7l-0.2,0.2c-0.1,0-1.1,0-1.6,0l-0.2-0.1
		l0.2,0.1l1.6,0l0.3-0.2l0-0.1c1.8-6.1,9.3-12.4,17.1-12.4c1.4,0,2.3,0.1,3,0.2l1.7-1.9L307.1,231.5"/>
	
		<linearGradient id="SVGID_58_" gradientUnits="userSpaceOnUse" x1="2.9779" y1="13.4232" x2="6.4151" y2="13.4232" gradientTransform="matrix(0.7706 -3.8665 3.8626 0.7714 271.7352 245.5287)">
		<stop  offset="0" style="stop-color:#231F20"/>
		<stop  offset="0.2722" style="stop-color:#5E5F61"/>
		<stop  offset="0.4793" style="stop-color:#D4D5D7"/>
		<stop  offset="1" style="stop-color:#515153"/>
	</linearGradient>
	<polyline class="st220" points="326.5,243.3 328.1,243.3 328.1,232.9 328.1,232.9 328.1,231.5 328,231.5 327.9,231.1 326.2,232.8 
		326.2,242.7 326.5,243.3 	"/>
	
		<linearGradient id="SVGID_59_" gradientUnits="userSpaceOnUse" x1="7.1402" y1="40.0815" x2="10.5774" y2="40.0815" gradientTransform="matrix(0 -1.2764 1.2751 0 270.7703 241.9867)">
		<stop  offset="0" style="stop-color:#737477"/>
		<stop  offset="0.503" style="stop-color:#EDEEEF"/>
		<stop  offset="0.503" style="stop-color:#EDEEEF"/>
		<stop  offset="1" style="stop-color:#939598"/>
	</linearGradient>
	<polyline class="st221" points="327.5,231 316.2,231 315.9,231.1 317.6,232.9 326.2,232.8 327.9,231.1 327.5,231 	"/>
	
		<linearGradient id="SVGID_60_" gradientUnits="userSpaceOnUse" x1="-0.6503" y1="-4.0197" x2="2.7869" y2="-4.0197" gradientTransform="matrix(0 11.7043 -11.6926 0 269.6461 243.4392)">
		<stop  offset="0" style="stop-color:#3A393B"/>
		<stop  offset="1" style="stop-color:#C3C5C7"/>
	</linearGradient>
	<polyline class="st222" points="315.7,288.1 315.7,289.4 315.7,289.4 315.9,289.8 317.6,288.1 317.6,232.9 315.9,231.1 
		315.7,231.5 315.7,232.9 315.7,232.9 315.7,288.1 	"/>
	
		<linearGradient id="SVGID_61_" gradientUnits="userSpaceOnUse" x1="8.666186e-002" y1="-4.4693" x2="3.5238" y2="-4.4693" gradientTransform="matrix(-0.6004 10.8302 -10.8195 -0.601 269.9001 246.9358)">
		<stop  offset="0" style="stop-color:#FFFFFF"/>
		<stop  offset="1" style="stop-color:#E7E8E8"/>
	</linearGradient>
	<polyline class="st223" points="317.8,287.9 317.8,233 317.6,232.9 317.5,233 317.5,288.1 	"/>
	
		<linearGradient id="SVGID_62_" gradientUnits="userSpaceOnUse" x1="18.9721" y1="-3.7544" x2="22.4095" y2="-3.7544" gradientTransform="matrix(2.5125 0 0 2.515 269.9294 242.4109)">
		<stop  offset="0" style="stop-color:#77787B"/>
		<stop  offset="1" style="stop-color:#FFFFFF"/>
	</linearGradient>
	<polyline class="st224" points="326.2,233.1 317.8,233 317.6,232.9 317.8,232.8 326.2,232.8 326.2,233.1 	"/>
	
		<linearGradient id="SVGID_63_" gradientUnits="userSpaceOnUse" x1="-0.3174" y1="19.4586" x2="3.1197" y2="19.4586" gradientTransform="matrix(-0.1894 -2.7799 2.777 -0.1896 272.4177 244.7147)">
		<stop  offset="0" style="stop-color:#231F20"/>
		<stop  offset="1" style="stop-color:#FFFFFF"/>
	</linearGradient>
	<polyline class="st225" points="326,233 326.3,243.1 326.2,232.8 326,233 	"/>
	<path id="XMLID_391_" class="st226" d="M67.5,264.5v25.2h24.1l13.5-20.2C93.2,266.3,80.5,264.5,67.5,264.5z M148.5,257.5
		c-7.1-3.9-14.5-7.2-22.2-10.1l-11.6,20.4c12.1,4.1,23.4,9.7,33.9,16.6L148.5,257.5z M148.5,289.7c-11-7.6-23.1-13.7-36-18l-10.3,18
		H148.5 M67.5,233c8.2,0,16.3,0.6,24.2,1.7l36.5-26h-13.4L67.5,233 M67.5,208.6v20.2l43-20.2H67.5z M67.5,237v14.9l19.4-13.8
		C80.5,237.4,74,237,67.5,237z M148.5,208.6l-20.1,35.3c6.9,2.6,13.7,5.6,20.2,9L148.5,208.6L148.5,208.6z M123.5,242.2l22.5-33.6
		h-14.2l-33.8,27C106.8,237.2,115.3,239.4,123.5,242.2z M121.2,245.7c-8.8-2.9-18-5.2-27.4-6.6l-26.3,21v0.1c14,0,27.5,1.9,40.3,5.6
		L121.2,245.7"/>
</g>
</svg>
