<svg xmlns="http://www.w3.org/2000/svg" height="800" width="1200" viewBox="-3.721815 -1.873555 32.25573 11.24133"><path d="M16.06913 7.48972c-.60165-.04639-1.1509-.29853-1.57804-.7247-.38364-.38277-.61955-.8483-.70972-1.40062l-.0186-.1139-.005-2.02436-.005-2.02436-.0186-.06576c-.0401-.14118-.11537-.24827-.22417-.3189-.0569-.03694-.16194-.07408-.22901-.081l-.0467-.0049V.5227h2.134v.21086h-.0317c-.0469 0-.14648.02988-.21551.06461-.0768.0387-.17004.12974-.2062.20138-.0137.02802-.0346.07925-.0455.11387l-.0198.06296V5.4191l.02.09699c.12697.61543.59065 1.081 1.19375 1.1987.39286.0766.78166-.0031 1.12344-.2295.1268-.08408.30497-.26242.39037-.39061.13612-.20432.21553-.4111.24975-.65029.0122-.08279.0137-.31716.0107-2.17618-.003-1.98074-.003-2.0859-.0177-2.13401-.0476-.15822-.14421-.27741-.27545-.3397-.0742-.03523-.16252-.06096-.20931-.06096h-.0269V.52268h1.99906v.20851l-.0467.0049c-.17154.01767-.33578.12994-.40896.27945-.0688.14055-.0621-.07282-.0682 2.17684-.003 1.10412-.008 2.02267-.0107 2.04123-.003.01854-.0107.0736-.0182.1223-.0726.51763-.3233 1.01215-.7076 1.39606-.19715.19694-.41265.35174-.66252.47586-.28083.13948-.55073.21941-.85572.25335-.11323.01221-.35008.0171-.45992.0092zm-3.34772-.0092c-.42045-.04395-.78654-.25562-1.23262-.7127-.31357-.32128-.58662-.67067-1.08348-1.38636-.33061-.47622-.42502-.60002-.55498-.72766-.19122-.18783-.40505-.3318-.57866-.38962-.0354-.01175-.07-.0215-.0769-.02153-.031-.00032-.0343-.01114-.0252-.08057.005-.0368.0107-.0764.0137-.088l.005-.02105.141-.00096c.3706-.0029.72544-.09893.97119-.26236.19325-.12852.34749-.34695.43357-.61404.16292-.5054.062-1.03263-.27866-1.45478-.0719-.08915-.22146-.23077-.3089-.29256-.19731-.13945-.4567-.23447-.72251-.26468-.2165-.02458-.5531.01567-.61743.07389-.0153.01312-.0153.12048-.0153 2.60403.0001 1.65017.003 2.61937.009 2.67042.0122.1101.0363.20193.0777.28678.0279.05753.0493.08607.10713.14405.0734.0734.11125.0992.19455.13246.0557.02228.14558.0438.18346.04395l.0273.00012v.21929H7.2226v-.21543l.0598-.0092c.036-.0061.0844-.02152.12148-.03983.1549-.07661.24888-.22105.28682-.44096.0107-.06574.0122-.3867.0107-2.7567-.002-2.55226-.003-2.68472-.0174-2.73288-.0446-.14886-.13764-.2658-.2632-.33047C7.3376.7703 7.25557.74461 7.1794.73753l-.058-.0053V.52387l.99743-.0018c.54859-.00095 1.08282.0003 1.1872.0034 1.08249.03098 1.85255.42692 2.20896 1.13574.0772.1535.1471.3817.17503.57152.0204.13906.0206.4185.00027.55206-.0571.37502-.19336.67685-.42838.9492-.14283.16552-.36782.33008-.59536.43545l-.0742.03435.0209.01373c.0453.02983.16768.1371.22367.1962.10819.11414.2014.22827.44699.54718.6771.87929 1.19279 1.52268 1.35806 1.6944.19733.20503.41552.3445.6412.40991.0902.0261.2279.04654.31369.04654h.067l.0153.06837c.008.03754.0165.0731.0188.0789.008.02121-.22658.12712-.37215.16788-.20291.05692-.4057.07539-.6022.05478zM.00079 7.2297v-.10865l.04013-.0061c.14985-.02198.34015-.1623.45753-.3372.02472-.03692.0647-.10895.0888-.16025.02412-.05127.58394-1.56122 1.24412-3.35541C2.49156 1.46788 3.03395-.00005 3.03667 0c.003.00005.6783 1.50408 1.50123 3.3423.82294 1.83822 1.51103 3.36878 1.52913 3.40125.0707.12681.18915.24418.31009.3071.0687.0357.17236.0682.21755.0682h.0276v.2193H4.38704v-.217l.058-.0061c.0635-.0061.15514-.0316.20704-.058.0555-.02822.11842-.09445.1442-.15198.0415-.09248.0377-.20257-.0122-.3461-.0137-.03822-.16483-.39968-.3368-.80329l-.31268-.73383H2.03216l-.26566.76335c-.14604.41985-.27304.79182-.28204.82661-.0186.07203-.022.18228-.008.23731.0354.13124.1381.21847.30079.2551.0334.0076.0742.01374.0907.01374h.0299v.21928H0zm3.90285-2.75704c-.002-.0034-.20984-.49365-.46208-1.08927-.43122-1.01833-.45918-1.08149-.46844-1.05857-.006.01343-.16947.48744-.36454 1.05342-.19507.56598-.36043 1.04518-.36746 1.0649l-.0122.03583h.83939c.46166 0 .83783-.0029.83592-.0064zM20.28967 7.3194c.003-.01068.005-.05982.005-.10973l.00012-.09064.0232-.00009c.0122-.00006.0441-.0061.0696-.0122.153-.0406.27177-.14788.3367-.3038.0566-.13596.0543-.09491.0572-1.05434.001-.47784-.0005-1.69815-.005-2.7118l-.008-1.843-.023-.07573c-.0324-.10593-.0586-.1508-.13154-.22468-.0874-.08855-.19911-.143-.32472-.15833l-.0424-.0052-.003-.10333-.003-.10333h1.11198c1.10534 0 1.21677.0024 1.44009.03011.67804.08442 1.22046.33456 1.5625.72057.28116.31728.44289.75027.45534 1.21914.005.18634-.003.28563-.0365.44455-.1134.5404-.50975 1.04972-1.00286 1.28866-.12208.05913-.2238.0938-.3515.11966-.0827.01677-.11995.0193-.27688.01888-.16382-.00042-.19176-.0029-.28895-.02326-.1404-.02973-.26475-.0717-.39115-.132-.11552-.0551-.22253-.12119-.22224-.13722.0001-.006.008-.03727.0154-.06975l.0153-.05904.0331.00095c.0182.00048.0745.0052.12514.01053.11536.01206.31736.01236.42482.00095.38136-.04146.63573-.18366.8138-.455.0574-.08747.11704-.21455.15245-.3251.16247-.507.0617-1.03267-.27885-1.45479-.0719-.08915-.22146-.23076-.3089-.29256-.19731-.13944-.4567-.23446-.72251-.26468-.2165-.02459-.5531.01567-.61742.0739-.0153.01311-.0153.12057-.0153 2.60403 0 1.67432.003 2.62197.009 2.67988.0188.19834.0716.32518.18045.43432.0545.05448.0829.07538.13994.103.0731.03526.15942.06029.20877.06044l.0273.00012v.2193h-2.16128z"/></svg>